<?xml version="1.0" encoding="UTF-8"?>
<svg id="Layer_2" data-name="Layer 2" xmlns="http://www.w3.org/2000/svg" viewBox="0 0 242.92 395.63">
  <defs>
    <style>
      .cls-1, .cls-2, .cls-3, .cls-4 {
        fill: none;
        stroke: #1c1c26;
        stroke-miterlimit: 10;
      }

      .cls-1, .cls-4 {
        stroke-width: 5px;
      }

      .cls-5, .cls-6, .cls-7, .cls-8, .cls-9, .cls-10, .cls-11, .cls-12, .cls-13, .cls-14, .cls-15 {
        stroke-width: 0px;
      }

      .cls-5, .cls-10 {
        fill: #7bb1ff;
      }

      .cls-6, .cls-11 {
        fill: #4269b7;
      }

      .cls-7, .cls-10, .cls-3, .cls-11, .cls-12, .cls-14, .cls-4 {
        fill-rule: evenodd;
      }

      .cls-7, .cls-13 {
        fill: #1c1c26;
      }

      .cls-8 {
        fill: #20182b;
      }

      .cls-9 {
        fill: #b3ceff;
      }

      .cls-2, .cls-3 {
        stroke-linecap: round;
        stroke-width: 3px;
      }

      .cls-12 {
        fill: #f22;
      }

      .cls-14, .cls-15 {
        fill: #fff;
      }
    </style>
  </defs>
  <g id="OBJECTS">
    <g>
      <ellipse class="cls-13" cx="122.46" cy="385.38" rx="97.35" ry="10.25"/>
      <path class="cls-5" d="M100.91,249.65s-11.57,74.33-13.85,118.99h29.49l2.36-118.99h-18Z"/>
      <path class="cls-11" d="M117.21,335.48c-5.7,5.46-15.41,11.83-28.42,9.76-.76,8.28-1.37,16.22-1.73,23.4h29.49l.66-33.16Z"/>
      <path class="cls-13" d="M118.01,287.09l-23.06-3.44c-.42,3.2-1.28,9.94-1.7,13.29l24.6-2.23.15-7.62Z"/>
      <path class="cls-1" d="M100.91,249.65s-11.57,74.33-13.85,118.99h29.49l2.36-118.99h-18Z"/>
      <path class="cls-12" d="M82.89,352.67l-1.09,13.38s-24.79,3.22-24.15,20.11h59.81l.13-33.49h-34.71Z"/>
      <path class="cls-14" d="M80.57,380.74c.75-5.56-2.06-11.07-9.09-11.84-6.72,2.74-14.18,7.9-13.83,17.26h13.32c5.22-1.16,9.25-2.87,9.6-5.42Z"/>
      <path class="cls-3" d="M80.57,380.74c.75-5.56-2.06-11.07-9.09-11.84-6.72,2.74-14.18,7.9-13.83,17.26h13.32c5.22-1.16,9.25-2.87,9.6-5.42Z"/>
      <path class="cls-14" d="M115.92,378.55h-56.03c-1.48,2.16-2.35,4.68-2.23,7.61h59.82l-1.56-7.61Z"/>
      <path class="cls-4" d="M82.89,352.67l-1.09,13.38s-24.79,3.22-24.15,20.11h59.81l.13-33.49h-34.71Z"/>
      <line class="cls-2" x1="59.89" y1="378.55" x2="115.92" y2="378.55"/>
      <path class="cls-15" d="M95.98,362.17l-14.54-1.54c-1.41-.15-2.44-1.41-2.29-2.82h0c.15-1.41,1.41-2.44,2.82-2.29l14.54,1.54c1.41.15,2.44,1.41,2.29,2.82h0c-.15,1.41-1.41,2.44-2.82,2.29Z"/>
      <path class="cls-9" d="M90.13,361.57l-8.69-.9c-1.41-.15-2.44-1.41-2.29-2.82h0c.15-1.41,1.41-2.44,2.82-2.29l8.69.9c1.41.15,2.44,1.41,2.29,2.82h0c-.15,1.41-1.41,2.44-2.82,2.29Z"/>
      <path class="cls-2" d="M95.98,362.17l-14.54-1.54c-1.41-.15-2.44-1.41-2.29-2.82h0c.15-1.41,1.41-2.44,2.82-2.29l14.54,1.54c1.41.15,2.44,1.41,2.29,2.82h0c-.15,1.41-1.41,2.44-2.82,2.29Z"/>
      <path class="cls-15" d="M94.91,367.43l-14.54-1.54c-1.41-.15-2.44-1.41-2.29-2.82h0c.15-1.41,1.41-2.44,2.82-2.29l14.54,1.54c1.41.15,2.44,1.41,2.29,2.82h0c-.15,1.41-1.41,2.44-2.82,2.29Z"/>
      <path class="cls-9" d="M89.05,366.83l-8.69-.9c-1.41-.15-2.44-1.41-2.29-2.82h0c.15-1.41,1.41-2.44,2.82-2.29l8.69.9c1.41.15,2.44,1.41,2.29,2.82h0c-.15,1.41-1.41,2.44-2.82,2.29Z"/>
      <path class="cls-2" d="M94.91,367.43l-14.54-1.54c-1.41-.15-2.44-1.41-2.29-2.82h0c.15-1.41,1.41-2.44,2.82-2.29l14.54,1.54c1.41.15,2.44,1.41,2.29,2.82h0c-.15,1.41-1.41,2.44-2.82,2.29Z"/>
      <path class="cls-5" d="M144.01,249.65s11.57,74.33,13.85,118.99h-29.49s-2.36-118.99-2.36-118.99h18Z"/>
      <path class="cls-11" d="M127.71,335.48c5.7,5.46,15.41,11.83,28.42,9.76.76,8.28,1.37,16.22,1.73,23.4h-29.49l-.66-33.16Z"/>
      <path class="cls-13" d="M126.9,287.09l23.06-3.44c.42,3.2,1.28,9.94,1.7,13.29l-24.6-2.23-.15-7.62Z"/>
      <path class="cls-1" d="M144.01,249.65s11.57,74.33,13.85,118.99h-29.49s-2.36-118.99-2.36-118.99h18Z"/>
      <path class="cls-12" d="M162.02,352.67l1.09,13.38s24.79,3.22,24.15,20.11h-59.81s-.13-33.49-.13-33.49h34.71Z"/>
      <path class="cls-14" d="M164.35,380.74c-.75-5.56,2.06-11.07,9.09-11.84,6.72,2.74,14.18,7.9,13.83,17.26h-13.32c-5.22-1.16-9.25-2.87-9.6-5.42Z"/>
      <path class="cls-3" d="M164.35,380.74c-.75-5.56,2.06-11.07,9.09-11.84,6.72,2.74,14.18,7.9,13.83,17.26h-13.32c-5.22-1.16-9.25-2.87-9.6-5.42Z"/>
      <path class="cls-14" d="M129,378.55h56.03c1.48,2.16,2.35,4.68,2.23,7.61h-59.82s1.56-7.61,1.56-7.61Z"/>
      <path class="cls-4" d="M162.02,352.67l1.09,13.38s24.79,3.22,24.15,20.11h-59.81s-.13-33.49-.13-33.49h34.71Z"/>
      <line class="cls-2" x1="185.03" y1="378.55" x2="129" y2="378.55"/>
      <path class="cls-15" d="M148.94,362.17l14.54-1.54c1.41-.15,2.44-1.41,2.29-2.82h0c-.15-1.41-1.41-2.44-2.82-2.29l-14.54,1.54c-1.41.15-2.44,1.41-2.29,2.82h0c.15,1.41,1.41,2.44,2.82,2.29Z"/>
      <path class="cls-9" d="M154.79,361.57l8.69-.9c1.41-.15,2.44-1.41,2.29-2.82h0c-.15-1.41-1.41-2.44-2.82-2.29l-8.69.9c-1.41.15-2.44,1.41-2.29,2.82h0c.15,1.41,1.41,2.44,2.82,2.29Z"/>
      <path class="cls-2" d="M148.94,362.17l14.54-1.54c1.41-.15,2.44-1.41,2.29-2.82h0c-.15-1.41-1.41-2.44-2.82-2.29l-14.54,1.54c-1.41.15-2.44,1.41-2.29,2.82h0c.15,1.41,1.41,2.44,2.82,2.29Z"/>
      <path class="cls-15" d="M150.01,367.43l14.54-1.54c1.41-.15,2.44-1.41,2.29-2.82h0c-.15-1.41-1.41-2.44-2.82-2.29l-14.54,1.54c-1.41.15-2.44,1.41-2.29,2.82h0c.15,1.41,1.41,2.44,2.82,2.29Z"/>
      <path class="cls-9" d="M155.86,366.83l8.69-.9c1.41-.15,2.44-1.41,2.29-2.82h0c-.15-1.41-1.41-2.44-2.82-2.29l-8.69.9c-1.41.15-2.44,1.41-2.29,2.82h0c.15,1.41,1.41,2.44,2.82,2.29Z"/>
      <path class="cls-2" d="M150.01,367.43l14.54-1.54c1.41-.15,2.44-1.41,2.29-2.82h0c-.15-1.41-1.41-2.44-2.82-2.29l-14.54,1.54c-1.41.15-2.44,1.41-2.29,2.82h0c.15,1.41,1.41,2.44,2.82,2.29Z"/>
    </g>
    <g>
      <path class="cls-14" d="M83.09,4.51c2.49,37.55,6.29,50.23,39.59,59.08,32.93,8.75,99.22,43.96,100.71,121.38.02.89.04,1.78.04,2.67,0,55.64-45.11,100.75-100.75,100.75S21.93,243.28,21.93,187.64C15.36,68.67,83.09,4.51,83.09,4.51Z"/>
      <path class="cls-10" d="M103.4,241.94c83.25-61.38,146.22,26.63,19.37,47.42-36.34,5.96-61.75-16.17-19.37-47.42Z"/>
      <path class="cls-11" d="M122.55,261.62c47.65,0,86.87-36.03,91.94-82.32.37,3.34.56,6.74.56,10.18,0,51.09-41.42,92.5-92.5,92.5S30.04,240.57,30.04,189.48c0-3.44.19-6.84.56-10.18,5.07,46.3,44.3,82.32,91.94,82.32Z"/>
      <path class="cls-4" d="M83.18,5.47c2.49,37.55,6.29,50.23,39.59,59.08,32.93,8.75,99.22,43.96,100.71,121.38.02.89.04,1.78.04,2.67,0,55.64-45.11,100.75-100.75,100.75S22.02,244.24,22.02,188.6C15.45,69.62,83.18,5.47,83.18,5.47Z"/>
    </g>
    <g>
      <g>
        <g>
          <path class="cls-14" d="M124.96,175.72c-1.06,15.25,7.5,28.26,19.12,29.07,11.63.81,21.91-10.89,22.98-26.13,1.06-15.25-7.5-28.26-19.12-29.07-11.63-.81-21.91,10.89-22.98,26.13Z"/>
          <path class="cls-13" d="M167.06,178.66c-.94-12.36-8.75-28.96-23.35-26.26-8.65,2.05-14.18,10.71-16.04,18.98-3.2,12.84,1.67,30.72,16.42,33.41-7.5.12-14.23-5.51-17.46-12.11-6.82-13.45-4.06-32.39,8.61-41.75,8.01-6.03,19.38-4.79,25.93,2.79,5.93,6.71,7.89,16.32,5.89,24.94h0Z"/>
          <g>
            <path class="cls-7" d="M126.12,177.77c-.78,11.22,5.52,20.79,14.07,21.39,8.55.6,16.12-8.01,16.91-19.23.78-11.22-5.52-20.79-14.07-21.39-8.55-.6-16.12,8.01-16.91,19.23Z"/>
            <polygon class="cls-14" points="158.12 185.68 147.7 180.51 158.58 175.45 158.12 185.68"/>
          </g>
        </g>
        <g>
          <path class="cls-14" d="M71.46,178.27c1.98,15.15,12.96,26.21,24.51,24.7,11.56-1.51,19.32-15.02,17.34-30.17-1.98-15.15-12.96-26.21-24.51-24.7-11.56,1.51-19.32,15.02-17.34,30.17Z"/>
          <path class="cls-13" d="M113.31,172.8c-3.37-11.93-14.32-26.65-28.1-21.1-8.08,3.72-11.77,13.31-11.96,21.78-.59,13.22,7.73,29.78,22.72,29.49-7.32,1.6-15.04-2.58-19.51-8.41-10.97-13.49-10.43-38.91,6.72-47.4,16.6-7.13,30.83,9.79,30.13,25.63h0Z"/>
          <g>
            <path class="cls-7" d="M73,180.05c1.46,11.15,9.53,19.29,18.04,18.18,8.5-1.11,14.21-11.05,12.76-22.2-1.46-11.15-9.53-19.29-18.03-18.18-8.5,1.11-14.21,11.05-12.76,22.2Z"/>
            <polygon class="cls-14" points="105.94 181.45 94.69 178.45 104.36 171.33 105.94 181.45"/>
          </g>
        </g>
        <g>
          <path class="cls-6" d="M158.09,225.65s-.2,4.4-28.46,7.21c-22.94,2.28-44.97.08-49.08-10.29,0,0,23.46,7.28,42.37,4.16,21.84-3.6,25.41-.36,25.41-.36l9.76-.71Z"/>
          <path class="cls-13" d="M157.81,227.41c-13.77-1.69-27.51-.66-41.36.19-13.87.79-29.38,1.25-41.16-7.2,10.81,3.73,21.91,4.1,33.1,3.5,16.56-1.11,33.47-3.25,49.99,0,0,0-.56,3.51-.56,3.51h0Z"/>
        </g>
      </g>
      <g>
        <path class="cls-13" d="M114.65,203.52c1.59-7.06,11.49-13.02,17.53-7.03,3.31,3.62,1.34,9.21-1.47,12.16.95-3.25,2.1-7.55-.62-10.1-5.16-3.59-11.41,1.53-15.44,4.97h0Z"/>
        <path class="cls-7" d="M122.01,196.69c-1.37-3.29-1.42-8.65-1.42-8.65,0,0,3.15,6.24,6.29,7.16l-4.87,1.49Z"/>
      </g>
      <g>
        <path class="cls-7" d="M158.48,126.25c-14.03-5.46-22.88,3.19-22.88,3.19l3.14,8.71c9.29-5.61,25.35-4.06,31.94,8.9,0,0,0-16.06-12.19-20.81Z"/>
        <path class="cls-7" d="M76.96,126.25c-12.67,4.74-12.67,20.81-12.67,20.81,6.84-12.97,23.53-14.52,33.19-8.9l3.26-8.71s-9.19-8.65-23.77-3.19Z"/>
      </g>
    </g>
    <g>
      <g>
        <g>
          <path class="cls-14" d="M188.89,260.65s1.53-14.19,13.46-15.89c0,0,18.42,5.25,33.87,26.07,15.45,20.82-8.68,37.33-35.52,40.17l-10.1-16.96s8.61-4.72,21.45-6.04c0,0,.5-21.85-23.17-27.36Z"/>
          <path class="cls-11" d="M199.27,257.04c11.77,3.75,16.95,16.82,18.05,24.14.14.96.71,1.8,1.57,2.25,2.33,1.23,7.13,3.17,10.8.87,1.22-.76,1.68-2.31,1.15-3.65-2.3-5.8-10.54-22.85-29.71-29.35-1.29-.44-2.72.05-3.48,1.17h0c-1.13,1.68-.31,3.94,1.62,4.56Z"/>
          <path class="cls-11" d="M204.8,298.97h0c.77,1.05,2.11,1.52,3.36,1.18,5.02-1.35,17.55-5.11,21.15-9.95,0,0-13.05,1.45-22.74,3.84-2.18.54-3.1,3.13-1.77,4.94Z"/>
          <g>
            <path class="cls-13" d="M200.71,244.04c16.7,2.76,39.46,18.99,41.99,36.8,1.04,7.27-1.75,14.84-7.02,19.91-9.46,9.26-23.42,11.91-36.15,11.99,0,0-.1-5-.1-5,12.31-.78,26.19-3.27,34.25-13.37,5.85-7.39,4.03-17.18-1.22-24.52-7.81-11.63-20.88-17.41-31.75-25.81h0Z"/>
            <path class="cls-13" d="M221.87,287.4c-5.07,2-10.37,2.78-15.56,4.15-3.96,1.04-8.12,2.39-11.87,4.04-6.43,2.75-12.76,6.41-17.5,11.58,0,0-4.07-2.91-4.07-2.91,7.51-9.44,19.46-14.02,30.94-16.43,5.93-1.09,12.11-1.84,18.06-.43h0Z"/>
            <path class="cls-13" d="M187.42,260.3c6.08.11,12.34,2.02,17.07,5.95,6.47,5.19,10.19,13.63,9.53,21.93,0,0-4.99-.34-4.99-.34-.04-.58-.11-1.4-.2-2.12-.76-6.38-3.51-12.5-8.15-17-.88-.77-1.76-1.51-2.64-2.29-.68-.45-2.27-1.6-2.93-2.06-2.5-1.51-5.03-2.73-7.68-4.07h0Z"/>
          </g>
        </g>
        <g>
          <path class="cls-15" d="M193.83,320.59s-2.76,3.8-4.16,4.68c-1.4.87-4.93,2.77-4.93,2.77,0,0,6.13,2.28,5.71,11.4-.42,9.12-11.94,13.41-16.66,11.64-4.72-1.77-7.69-6.48-7.69-6.48,0,0-6.08,1.07-9.79-1.34-3.71-2.41-4.09-5.8-4.09-5.8,0,0-6.62-4.01-3.87-14.55,2.74-10.54,11.43-18.52,16.8-20.8s9.15-2.57,9.15-2.57c0,0,1.39-11.47,14.57-8.16,13.18,3.31,16.82,16.54,15.48,22.98-1.35,6.44-7.6,6.75-10.51,6.24Z"/>
          <path class="cls-9" d="M152.22,337.45s-5.64-3.42-4.35-12.24c1.26,1.4,2.96,1.54,3.73.2,1.67-2.93,4.95-3.8,4.95-3.8-4.35,11.53,2.8,10.9,3.95,9.26,1.15-1.63,3.59-3.71,3.59-3.71-.38,7.19,4.24,9.03,6.55,4.95,2.31-4.08,10-7.11,17.01-13.63,7.02-6.53,3.92-12.2,3.92-12.2,6.8,5.63,17.16,3.96,7.69-7.66l1.09.38c3.79,5.15,4.79,11.48,3.98,15.36-1.35,6.44-7.6,6.75-10.51,6.24,0,0-2.76,3.8-4.16,4.68-1.4.87-4.93,2.77-4.93,2.77,0,0,5.53,2.64,5.11,11.76s-11.34,13.05-16.06,11.28c-4.72-1.77-7.69-6.48-7.69-6.48,0,0-6.08,1.07-9.79-1.34-3.71-2.41-4.09-5.8-4.09-5.8Z"/>
          <path class="cls-9" d="M183.94,299.82l-9.64-.33c.09-.64,1.58-9.88,12.04-8.6-5.82.65-7.05,6.18-2.4,8.93Z"/>
          <path class="cls-1" d="M193.81,321.18c3.23.19,6.16-.72,8.23-2.82,4.83-4.9,3.09-14.44-3.88-21.31-6.97-6.87-16.54-8.46-21.37-3.56-1.29,1.31-2.11,2.96-2.49,4.79"/>
          <path class="cls-13" d="M192.53,307.46c7.26,6.24,4.75,17.86-4.27,21.26-1.11.51-2.27,1.08-3.24,1.82-3.85,3.1-8.13,10.18-14.14,7.31,3.35-2.63,3.99-4.68,6.72-7.73,2.22-2.57,5.56-4.3,8.7-5.63,6.34-3.26,9.37-10.04,6.23-17.03h0Z"/>
          <path class="cls-13" d="M185.5,325.65c13.43,5.98,7.49,25.68-5.66,27.59-13.06,2.67-23.37-11.85-16.23-22.79-.22,4.98,1.12,9.6,4.31,13.14,2.82,3.1,6.78,5.44,11.05,4.73,6.2-.77,10.88-8.26,8.56-14.12-.72-1.8-2.1-3.18-3.96-3.96l1.93-4.58h0Z"/>
          <path class="cls-13" d="M166.82,347.24c-3.13,1.82-7.34,1.34-10.28-.57-8.27-5.06-9.25-18.88-.75-23.95-.75,5.18-1.96,9.69,0,14.32,1.53,3.54,4.97,6.7,8.92,5.66,0,0,2.11,4.53,2.11,4.53h0Z"/>
          <path class="cls-13" d="M187.46,302.17c-11.79-3.44-22.83,1-30.09,10.54-2.81,3.55-5.4,7.81-6.45,12.15-1.13,4.42-.46,9.76,3.7,12.09,0,0-1.81,4.51-1.81,4.51-1.81-.66-3.35-1.79-4.56-3.15-8.05-9.68-1.32-23.21,6.01-31.13,6.19-6.76,15.93-12.31,25.46-10.19,3.13.77,6.09,2.54,7.75,5.19h0Z"/>
          <path class="cls-8" d="M177.68,341.62c1.99-2.14,1.73-5.37-.81-6.26l1.49-2.02s2.5,1.12,2.7,3.7c.25,3.06-2.06,4.7-3.39,4.59Z"/>
          <path class="cls-8" d="M183.95,337.05c-.5-.69-2.41-1.19-3.28-.25l-1.94-2.62s4.45-1.03,5.22,2.87Z"/>
        </g>
      </g>
      <g>
        <g>
          <path class="cls-14" d="M53.98,259.65s-1.53-14.19-13.46-15.89c0,0-18.42,5.25-33.87,26.07s8.68,37.33,35.52,40.17l10.1-16.96s-8.61-4.72-21.45-6.04c0,0-.5-21.85,23.17-27.36Z"/>
          <path class="cls-11" d="M43.61,256.04c-11.77,3.75-16.95,16.82-18.05,24.14-.14.96-.71,1.8-1.57,2.25-2.33,1.22-7.13,3.17-10.8.87-1.22-.76-1.68-2.31-1.15-3.65,2.3-5.8,10.54-22.85,29.71-29.35,1.29-.44,2.72.05,3.48,1.17h0c1.13,1.68.31,3.94-1.62,4.56Z"/>
          <path class="cls-11" d="M38.07,297.97h0c-.77,1.05-2.11,1.52-3.36,1.18-5.02-1.35-17.55-5.11-21.15-9.95,0,0,13.05,1.45,22.74,3.84,2.18.54,3.1,3.13,1.77,4.94Z"/>
          <g>
            <path class="cls-13" d="M42.17,243.04c-10.87,8.39-23.94,14.18-31.75,25.81-5.24,7.34-7.07,17.13-1.22,24.52,8.06,10.1,21.94,12.59,34.25,13.37,0,0-.1,5-.1,5-13.34-.06-28.15-3.04-37.51-13.39-8.58-9.94-7.05-22.5.34-32.48,8.6-11.15,22.12-20.34,35.99-22.81h0Z"/>
            <path class="cls-13" d="M21,286.4c5.95-1.41,12.13-.66,18.06.43,11.48,2.41,23.43,6.99,30.94,16.43,0,0-4.07,2.91-4.07,2.91-.19-.23-.56-.64-.89-.96-5.45-5.38-12.39-9.07-19.5-11.8-2.82-1.07-6.07-2.12-8.98-2.86-5.2-1.37-10.49-2.15-15.56-4.15h0Z"/>
            <path class="cls-13" d="M55.45,259.3c-2.98,1.56-5.96,2.82-8.66,4.77,0,0-1.95,1.35-1.95,1.35-1.14,1.03-2.43,1.96-3.42,3.14-4.28,4.31-6.62,10.2-7.38,16.15-.1.72-.16,1.54-.2,2.12,0,0-4.99.34-4.99.34-.66-8.3,3.06-16.74,9.53-21.93,4.73-3.92,10.99-5.84,17.07-5.95h0Z"/>
          </g>
        </g>
        <g>
          <path class="cls-15" d="M49.04,319.59s2.76,3.8,4.16,4.68c1.4.87,4.93,2.77,4.93,2.77,0,0-6.13,2.28-5.71,11.4.42,9.12,11.94,13.41,16.66,11.64,4.72-1.77,7.69-6.48,7.69-6.48,0,0,6.08,1.07,9.79-1.34,3.71-2.41,4.09-5.8,4.09-5.8,0,0,6.62-4.01,3.87-14.55-2.74-10.54-11.43-18.52-16.8-20.8-5.37-2.28-9.15-2.57-9.15-2.57,0,0-1.39-11.47-14.57-8.16-13.18,3.31-16.82,16.54-15.48,22.98,1.35,6.44,7.6,6.75,10.51,6.24Z"/>
          <path class="cls-9" d="M90.66,336.45s5.64-3.42,4.35-12.24c-1.26,1.4-2.96,1.54-3.73.2-1.67-2.93-4.95-3.8-4.95-3.8,4.35,11.53-2.8,10.9-3.95,9.26-1.15-1.63-3.59-3.71-3.59-3.71.38,7.19-4.24,9.03-6.55,4.95-2.31-4.08-10-7.11-17.01-13.63-7.02-6.53-3.92-12.2-3.92-12.2-6.8,5.63-17.16,3.96-7.69-7.66l-1.09.38c-3.79,5.15-4.79,11.48-3.98,15.36,1.35,6.44,7.6,6.75,10.51,6.24,0,0,2.76,3.8,4.16,4.68,1.4.87,4.93,2.77,4.93,2.77,0,0-5.53,2.64-5.11,11.76.42,9.12,11.34,13.05,16.06,11.28,4.72-1.77,7.69-6.48,7.69-6.48,0,0,6.08,1.07,9.79-1.34,3.71-2.41,4.09-5.8,4.09-5.8Z"/>
          <path class="cls-9" d="M58.93,298.82l9.64-.33c-.09-.64-1.58-9.88-12.04-8.6,5.82.65,7.05,6.18,2.4,8.93Z"/>
          <path class="cls-1" d="M49.07,320.18c-3.23.19-6.16-.72-8.23-2.82-4.83-4.9-3.09-14.44,3.88-21.31,6.97-6.87,16.54-8.46,21.37-3.56,1.29,1.31,2.11,2.96,2.49,4.79"/>
          <path class="cls-13" d="M50.35,306.46c-2.96,6.61-.46,12.9,5.21,16.49.67.42,1.51.77,2.24,1.09,2.74,1.15,5.55,2.89,7.48,5.07,2.73,3.05,3.37,5.1,6.72,7.73-3.91,2.13-8.38-1.31-10.71-4.01-1.71-1.81-3.22-3.49-5.45-4.53-2.78-1.29-5.61-2.68-7.43-5.32-3.72-5.01-2.7-12.9,1.93-16.54h0Z"/>
          <path class="cls-13" d="M59.31,329.24c-3.97,1.58-5.32,6.01-4.17,9.97,2.99,9.69,13.53,10.75,19.82,3.39,3.18-3.55,4.53-8.16,4.31-13.14,3.15,4.4,3.07,11.19-.28,16.17-5.01,8.1-17.31,9.16-24.03,2.6-7.09-6.4-7.34-19.57,2.42-23.55,0,0,1.93,4.58,1.93,4.58h0Z"/>
          <path class="cls-13" d="M78.16,341.7c6.55,1.39,10.56-6.45,9.95-12.23-.11-2.36-.57-4.82-1.03-7.75,8.51,5.07,7.53,18.89-.75,23.95-2.94,1.91-7.15,2.39-10.28.57,0,0,2.11-4.53,2.11-4.53h0Z"/>
          <path class="cls-13" d="M55.41,301.17c3.54-5.53,11.38-6.64,17.34-4.92,8.6,2.21,15.43,8.26,20.18,15.43,4.03,6.11,6.9,13.63,4.4,20.99-1.16,3.43-3.74,6.49-7.26,7.78,0,0-1.81-4.51-1.81-4.51,4.15-2.33,4.82-7.67,3.7-12.09-1.05-4.34-3.64-8.6-6.45-12.15-7.28-9.55-18.28-13.97-30.09-10.54h0Z"/>
          <path class="cls-8" d="M65.2,340.62c-1.99-2.14-1.73-5.37.81-6.26l-1.49-2.02s-2.5,1.12-2.7,3.7c-.25,3.06,2.06,4.7,3.39,4.59Z"/>
          <path class="cls-8" d="M58.92,336.05c.5-.69,2.41-1.19,3.28-.25l1.94-2.62s-4.45-1.03-5.22,2.87Z"/>
        </g>
      </g>
    </g>
  </g>
</svg>