<?xml version="1.0" encoding="UTF-8"?>
<svg id="Layer_2" data-name="Layer 2" xmlns="http://www.w3.org/2000/svg" viewBox="0 0 381.7 395.63">
  <defs>
    <style>
      .cls-1, .cls-2, .cls-3, .cls-4 {
        fill: none;
        stroke: #1c1c26;
        stroke-miterlimit: 10;
      }

      .cls-1, .cls-4 {
        stroke-width: 5px;
      }

      .cls-5, .cls-6, .cls-7, .cls-8, .cls-9, .cls-10, .cls-11, .cls-12, .cls-13, .cls-14 {
        stroke-width: 0px;
      }

      .cls-5, .cls-9 {
        fill: #7bb1ff;
      }

      .cls-6, .cls-10 {
        fill: #4269b7;
      }

      .cls-7, .cls-9, .cls-3, .cls-10, .cls-11, .cls-13, .cls-4 {
        fill-rule: evenodd;
      }

      .cls-7, .cls-12 {
        fill: #1c1c26;
      }

      .cls-8 {
        fill: #b3ceff;
      }

      .cls-2, .cls-3 {
        stroke-linecap: round;
        stroke-width: 3px;
      }

      .cls-11 {
        fill: #f22;
      }

      .cls-13, .cls-14 {
        fill: #fff;
      }
    </style>
  </defs>
  <g id="OBJECTS">
    <g>
      <ellipse class="cls-12" cx="192.54" cy="385.38" rx="97.35" ry="10.25"/>
      <path class="cls-5" d="M170.99,249.65s-11.57,74.33-13.85,118.99h29.49l2.36-118.99h-18Z"/>
      <path class="cls-10" d="M187.29,335.48c-5.7,5.46-15.41,11.83-28.42,9.76-.76,8.28-1.37,16.22-1.73,23.4h29.49l.66-33.16Z"/>
      <path class="cls-12" d="M188.09,287.09l-23.06-3.44c-.42,3.2-1.28,9.94-1.7,13.29l24.6-2.23.15-7.62Z"/>
      <path class="cls-1" d="M170.99,249.65s-11.57,74.33-13.85,118.99h29.49l2.36-118.99h-18Z"/>
      <path class="cls-11" d="M152.97,352.67l-1.09,13.38s-24.79,3.22-24.15,20.11h59.81l.13-33.49h-34.71Z"/>
      <path class="cls-13" d="M150.65,380.74c.75-5.56-2.06-11.07-9.09-11.84-6.72,2.74-14.18,7.9-13.83,17.26h13.32c5.22-1.16,9.25-2.87,9.6-5.42Z"/>
      <path class="cls-3" d="M150.65,380.74c.75-5.56-2.06-11.07-9.09-11.84-6.72,2.74-14.18,7.9-13.83,17.26h13.32c5.22-1.16,9.25-2.87,9.6-5.42Z"/>
      <path class="cls-13" d="M185.99,378.55h-56.03c-1.48,2.16-2.35,4.68-2.23,7.61h59.82l-1.56-7.61Z"/>
      <path class="cls-4" d="M152.97,352.67l-1.09,13.38s-24.79,3.22-24.15,20.11h59.81l.13-33.49h-34.71Z"/>
      <line class="cls-2" x1="129.97" y1="378.55" x2="185.99" y2="378.55"/>
      <path class="cls-14" d="M166.06,362.17l-14.54-1.54c-1.41-.15-2.44-1.41-2.29-2.82h0c.15-1.41,1.41-2.44,2.82-2.29l14.54,1.54c1.41.15,2.44,1.41,2.29,2.82h0c-.15,1.41-1.41,2.44-2.82,2.29Z"/>
      <path class="cls-8" d="M160.21,361.57l-8.69-.9c-1.41-.15-2.44-1.41-2.29-2.82h0c.15-1.41,1.41-2.44,2.82-2.29l8.69.9c1.41.15,2.44,1.41,2.29,2.82h0c-.15,1.41-1.41,2.44-2.82,2.29Z"/>
      <path class="cls-2" d="M166.06,362.17l-14.54-1.54c-1.41-.15-2.44-1.41-2.29-2.82h0c.15-1.41,1.41-2.44,2.82-2.29l14.54,1.54c1.41.15,2.44,1.41,2.29,2.82h0c-.15,1.41-1.41,2.44-2.82,2.29Z"/>
      <path class="cls-14" d="M164.98,367.43l-14.54-1.54c-1.41-.15-2.44-1.41-2.29-2.82h0c.15-1.41,1.41-2.44,2.82-2.29l14.54,1.54c1.41.15,2.44,1.41,2.29,2.82h0c-.15,1.41-1.41,2.44-2.82,2.29Z"/>
      <path class="cls-8" d="M159.13,366.83l-8.69-.9c-1.41-.15-2.44-1.41-2.29-2.82h0c.15-1.41,1.41-2.44,2.82-2.29l8.69.9c1.41.15,2.44,1.41,2.29,2.82h0c-.15,1.41-1.41,2.44-2.82,2.29Z"/>
      <path class="cls-2" d="M164.98,367.43l-14.54-1.54c-1.41-.15-2.44-1.41-2.29-2.82h0c.15-1.41,1.41-2.44,2.82-2.29l14.54,1.54c1.41.15,2.44,1.41,2.29,2.82h0c-.15,1.41-1.41,2.44-2.82,2.29Z"/>
      <path class="cls-5" d="M214.09,249.65s11.57,74.33,13.85,118.99h-29.49s-2.36-118.99-2.36-118.99h18Z"/>
      <path class="cls-10" d="M197.79,335.48c5.7,5.46,15.41,11.83,28.42,9.76.76,8.28,1.37,16.22,1.73,23.4h-29.49l-.66-33.16Z"/>
      <path class="cls-12" d="M196.98,287.09l23.06-3.44c.42,3.2,1.28,9.94,1.7,13.29l-24.6-2.23-.15-7.62Z"/>
      <path class="cls-1" d="M214.09,249.65s11.57,74.33,13.85,118.99h-29.49s-2.36-118.99-2.36-118.99h18Z"/>
      <path class="cls-11" d="M232.1,352.67l1.09,13.38s24.79,3.22,24.15,20.11h-59.81s-.13-33.49-.13-33.49h34.71Z"/>
      <path class="cls-13" d="M234.42,380.74c-.75-5.56,2.06-11.07,9.09-11.84,6.72,2.74,14.18,7.9,13.83,17.26h-13.32c-5.22-1.16-9.25-2.87-9.6-5.42Z"/>
      <path class="cls-3" d="M234.42,380.74c-.75-5.56,2.06-11.07,9.09-11.84,6.72,2.74,14.18,7.9,13.83,17.26h-13.32c-5.22-1.16-9.25-2.87-9.6-5.42Z"/>
      <path class="cls-13" d="M199.08,378.55h56.03c1.48,2.16,2.35,4.68,2.23,7.61h-59.82s1.56-7.61,1.56-7.61Z"/>
      <path class="cls-4" d="M232.1,352.67l1.09,13.38s24.79,3.22,24.15,20.11h-59.81s-.13-33.49-.13-33.49h34.71Z"/>
      <line class="cls-2" x1="255.11" y1="378.55" x2="199.08" y2="378.55"/>
      <path class="cls-14" d="M219.01,362.17l14.54-1.54c1.41-.15,2.44-1.41,2.29-2.82h0c-.15-1.41-1.41-2.44-2.82-2.29l-14.54,1.54c-1.41.15-2.44,1.41-2.29,2.82h0c.15,1.41,1.41,2.44,2.82,2.29Z"/>
      <path class="cls-8" d="M224.87,361.57l8.69-.9c1.41-.15,2.44-1.41,2.29-2.82h0c-.15-1.41-1.41-2.44-2.82-2.29l-8.69.9c-1.41.15-2.44,1.41-2.29,2.82h0c.15,1.41,1.41,2.44,2.82,2.29Z"/>
      <path class="cls-2" d="M219.01,362.17l14.54-1.54c1.41-.15,2.44-1.41,2.29-2.82h0c-.15-1.41-1.41-2.44-2.82-2.29l-14.54,1.54c-1.41.15-2.44,1.41-2.29,2.82h0c.15,1.41,1.41,2.44,2.82,2.29Z"/>
      <path class="cls-14" d="M220.09,367.43l14.54-1.54c1.41-.15,2.44-1.41,2.29-2.82h0c-.15-1.41-1.41-2.44-2.82-2.29l-14.54,1.54c-1.41.15-2.44,1.41-2.29,2.82h0c.15,1.41,1.41,2.44,2.82,2.29Z"/>
      <path class="cls-8" d="M225.94,366.83l8.69-.9c1.41-.15,2.44-1.41,2.29-2.82h0c-.15-1.41-1.41-2.44-2.82-2.29l-8.69.9c-1.41.15-2.44,1.41-2.29,2.82h0c.15,1.41,1.41,2.44,2.82,2.29Z"/>
      <path class="cls-2" d="M220.09,367.43l14.54-1.54c1.41-.15,2.44-1.41,2.29-2.82h0c-.15-1.41-1.41-2.44-2.82-2.29l-14.54,1.54c-1.41.15-2.44,1.41-2.29,2.82h0c.15,1.41,1.41,2.44,2.82,2.29Z"/>
    </g>
    <g>
      <path class="cls-13" d="M153.17,4.28c2.49,37.55,6.29,50.23,39.59,59.08,32.93,8.75,99.22,43.96,100.71,121.38.02.89.04,1.78.04,2.67,0,55.64-45.11,100.75-100.75,100.75-55.64,0-100.75-45.11-100.75-100.75C85.44,68.43,153.17,4.28,153.17,4.28Z"/>
      <path class="cls-9" d="M232.77,175.45c-189.63-67.16-168.69,105.02-40.45,113.91,56.66,3.93,146.24-76.44,40.45-113.91Z"/>
      <path class="cls-10" d="M192.54,261.62c-47.65,0-86.87-36.03-91.94-82.32-.37,3.34-.56,6.74-.56,10.18,0,51.09,41.42,92.5,92.5,92.5s92.5-41.42,92.5-92.5c0-3.44-.19-6.84-.56-10.18-5.07,46.3-44.3,82.32-91.94,82.32Z"/>
      <path class="cls-4" d="M153.17,5.47c2.49,37.55,6.29,50.23,39.59,59.08,32.93,8.75,99.22,43.96,100.71,121.38.02.89.04,1.78.04,2.67,0,55.64-45.11,100.75-100.75,100.75-55.64,0-100.75-45.11-100.75-100.75C85.44,69.62,153.17,5.47,153.17,5.47Z"/>
    </g>
    <g>
      <g>
        <path class="cls-13" d="M189.51,171.65c2.22,17.13-6.57,32.39-19.64,34.08-13.07,1.69-25.45-10.83-27.67-27.96-2.22-17.13,6.57-32.39,19.64-34.08,13.06-1.69,25.45,10.83,27.67,27.96Z"/>
        <path class="cls-12" d="M142.19,177.78c-5.54-17.22,5.22-39.9,25.54-36.9,21.23,4.26,29.32,31.94,21.11,50.06-3.23,7.67-10.5,14.48-18.98,14.8,23.98-6.42,22.38-45.15,3.41-56.53-11.88-7.26-23.63,1.36-27.92,13.01-2.02,4.97-2.82,10.17-3.16,15.56h0Z"/>
        <path class="cls-7" d="M156.72,141.42c-16.93,7.52-18.62,24.03-32.06,24.43,0,0,11.05,7.43,18.65,4.12,0,0,4.14-18.44,20.29-20.93,12.44-1.92,20.69,11.34,20.69,11.34,0,0-9.54-24.16-27.56-18.95Z"/>
        <g>
          <path class="cls-7" d="M143.19,180.6c1.75,12.59,10.95,21.72,20.55,20.39,9.6-1.33,15.97-12.62,14.22-25.21-1.75-12.59-10.95-21.72-20.55-20.39-9.6,1.33-15.97,12.62-14.22,25.21Z"/>
          <path class="cls-13" d="M177.67,171.53c.39,1.34.7,2.74.89,4.19.26,1.89.31,3.74.21,5.54l-10.67-2.66,9.57-7.07Z"/>
        </g>
      </g>
      <g>
        <ellipse class="cls-14" cx="219.52" cy="174.72" rx="31.28" ry="23.85" transform="translate(17.81 369.73) rotate(-82.55)"/>
        <path class="cls-12" d="M195.87,171.62c-.95-18.06,15.26-37.24,34.13-29.13,19.43,9.55,20.17,38.38,7.6,53.79-5.08,6.59-13.86,11.31-22.13,9.45,24.82-.07,33.19-37.92,17.77-53.77-9.63-10.06-23.19-4.73-30.32,5.43-3.23,4.29-5.33,9.1-7.04,14.23h0Z"/>
        <path class="cls-7" d="M228.35,141.42c16.93,7.52,18.62,24.03,32.06,24.43,0,0-11.05,7.43-18.65,4.12,0,0-4.14-18.44-20.29-20.93-12.44-1.92-20.69,11.34-20.69,11.34,0,0,9.54-24.16,27.56-18.95Z"/>
        <g>
          <path class="cls-7" d="M196.43,176.8c-1.35,12.64,5.36,23.72,15,24.76,9.64,1.03,18.55-8.38,19.9-21.02,1.35-12.64-5.36-23.72-15-24.75-9.64-1.03-18.55,8.38-19.9,21.02Z"/>
          <path class="cls-13" d="M232.06,176.35c.05,1.42.01,2.86-.14,4.34-.21,1.92-.6,3.75-1.13,5.5l-9.66-5.24,10.93-4.6Z"/>
        </g>
      </g>
    </g>
    <g>
      <path class="cls-6" d="M226.9,221.08s-3.32,3.2-26.77,11.8c-21.64,7.93-46.66-4.51-50.76-14.88,0,0,20.81,13.19,42.37,8.16,21.56-5.03,25.41-4.36,25.41-4.36l9.76-.71Z"/>
      <path class="cls-5" d="M208.09,218.63c14.48-21.82,30.05-21.41,32.82-13.13,1.86,5.58-32.82,13.13-32.82,13.13Z"/>
      <path class="cls-12" d="M227.16,222.84c-26.63,4.48-59.61,9.56-83.06-7.01,6.73,2.31,13.39,4.23,20.18,5.42,13.68,2.58,27.64,1.75,41.45.39,6.96-.7,13.92-1.55,20.91-2.32l.52,3.52h0Z"/>
    </g>
    <g>
      <g>
        <path class="cls-9" d="M125.14,255.2s-16.37,5.96-32.81,22.2c0,0-13.45-35.26-32.8-35.26-13.07,0-11.78,11.87-11.78,11.87,0,0,27.75,48.17,36.2,49.88,8.44,1.71,23.77-17.99,49.42-34.65l-8.22-14.04Z"/>
        <path class="cls-10" d="M91.22,294.11c.44-3.08,12.24-20.5,20.94-20.95,2.16-.11,3.27,2.53,1.64,3.96-6.58,5.77-23,19.9-22.58,16.99"/>
        <path class="cls-10" d="M61.89,265.62c14.84,23.54,22.25,32.65,23.23,28.14.98-4.51-12.94-32.55-15-32.33s-8.24,4.2-8.24,4.2Z"/>
        <path class="cls-4" d="M125.14,255.2s-16.37,5.96-32.81,22.2c0,0-13.47-34.33-32.8-35.26-12.55-.6-11.78,11.87-11.78,11.87,0,0,27.75,48.17,36.2,49.88,8.44,1.71,23.77-17.99,49.42-34.65l-8.22-14.04Z"/>
      </g>
      <g>
        <path class="cls-14" d="M62.76,255.69c6.14-4.4,8.67-11.39,5.65-15.6-1.37-1.91-3.65-2.92-6.3-3.05l-.07.06s-.01-.08-.01-.12l.08.04c5.24.24,9.5-7.23,6.41-16.95-3.08-9.72-.76-13.68,4.5-17.13,5.27-3.46-2.33-12.8-10.55-8.27s-5.13,14.06-8.33,14.81c-3.2.76-22.34-5.13-33.26-5.31-10.92-.18-12.43,6.42-11.39,8.83h0c-1.47.35-2.8.83-3.92,1.47-6.71,3.83-.42,10.49-.42,10.49h0c-.05.1-.11.2-.15.3-1.67,4.43,3.77,8.95,16.83,13.12,10.98,3.51,14.27,11.35,23.06,12.94h0c-.11,1.74.29,3.37,1.26,4.71,3.02,4.21,10.45,4.06,16.59-.35Z"/>
        <path class="cls-8" d="M28.2,234.65c-2.59-.71-3.24-6.65-1.44-13.27,1.8-6.63,5.36-11.43,7.96-10.72,2.59.71.2,5.82-1.6,12.45-1.8,6.63-2.32,12.25-4.92,11.55Z"/>
        <path class="cls-8" d="M46.37,256.26c13,1.42,23.44-8.71,19.97-18.04-1.2-.71-2.64-1.1-4.22-1.18l-.07.06s-.01-.08-.01-.12l.08.04c.75.03,1.48-.1,2.18-.36l-2.42-.8-.24,5.63c-2.55,14.04-17.91,9.56-19.56,9.04.89.34,1.83.61,2.85.8h0c-.11,1.74.29,3.37,1.26,4.71.06.08.13.15.19.23Z"/>
        <g>
          <path class="cls-12" d="M54.14,225.22c9.03,1.21,12.32,12.61,8.81,20.13-3.6,8.54-14.4,10.65-22.43,7.41-4.96-2.01-8.53-5.78-12.76-8.45-2.16-1.42-4.44-2.46-6.86-3.25-6.31-2.2-14.84-4.74-18.27-11.06-.88-1.77-.99-4.04-.2-5.93,2.72-5.47,10.51-4.65,15.27-3.77,5.27,1.14,10.21,3.43,14.42,6.8l-3.05,3.96c-5.33-3.81-12.39-6.34-18.92-5.64-1.06.13-2.11.53-2.43.86-.8,3.63,9.42,7.37,12.36,8.47,1.11.41,2.39.8,3.5,1.22,2.57.87,5.01,2.15,7.24,3.61,4.49,2.92,7.89,6.65,11.74,8.26,2.37,1.07,5.17,1.28,7.83,1.09,5.92-.29,10.04-5.82,9.48-11.61-.41-4.58-2.94-8.46-5.72-12.11h0Z"/>
          <path class="cls-12" d="M36.65,212.75c-1.52,7.89-4.53,14.66-6.38,22.47-3.48-7.42-.39-17.9,6.38-22.47h0Z"/>
          <path class="cls-1" d="M33.73,217.97c-7.24-5.78-21.42-7.33-28.13-3.5-6.71,3.83-.42,10.49-.42,10.49"/>
          <path class="cls-1" d="M62.11,237.02c5.24.24,9.5-7.23,6.41-16.95-3.08-9.72-.76-13.68,4.5-17.13,5.27-3.46-2.33-12.8-10.55-8.27-8.22,4.52-5.13,14.06-8.33,14.81-3.2.76-22.34-5.13-33.26-5.31-10.92-.18-12.43,6.42-11.39,8.83"/>
          <path class="cls-1" d="M44.92,251.33c-.11,1.74.29,3.37,1.26,4.71,3.02,4.21,10.45,4.06,16.59-.35,6.14-4.4,8.67-11.39,5.65-15.6-1.37-1.91-3.65-2.92-6.3-3.05"/>
        </g>
      </g>
    </g>
    <g>
      <g>
        <path class="cls-9" d="M256.55,258.09s16.37,5.96,32.81,22.2c0,0,13.45-35.26,32.8-35.26,13.07,0,11.78,11.87,11.78,11.87,0,0-27.75,48.17-36.2,49.88s-23.77-17.99-49.42-34.65l8.22-14.04Z"/>
        <path class="cls-10" d="M290.48,297c-.44-3.08-12.24-20.5-20.94-20.95-2.16-.11-3.27,2.53-1.64,3.96,6.58,5.77,23,19.9,22.58,16.99"/>
        <path class="cls-10" d="M319.81,268.51c-14.84,23.54-22.25,32.65-23.23,28.14-.98-4.51,12.94-32.55,15-32.33s8.24,4.2,8.24,4.2Z"/>
        <path class="cls-4" d="M256.55,258.09s16.37,5.96,32.81,22.2c0,0,13.47-34.33,32.8-35.26,12.55-.6,11.78,11.87,11.78,11.87,0,0-27.75,48.17-36.2,49.88s-23.77-17.99-49.42-34.65l8.22-14.04Z"/>
      </g>
      <g>
        <path class="cls-14" d="M335.52,258.93c.96-1.35,1.36-2.97,1.26-4.71h0c8.79-1.6,12.08-9.43,23.06-12.94,13.05-4.17,18.49-8.68,16.83-13.12-.04-.1-.09-.2-.15-.3h0s6.29-6.66-.42-10.49c-1.12-.64-2.45-1.13-3.92-1.47h0c1.04-2.41-.47-9.01-11.39-8.83-10.92.18-30.06,6.06-33.26,5.31-3.2-.76-.12-10.29-8.33-14.81s-15.81,4.82-10.55,8.27c5.27,3.45,7.59,7.41,4.5,17.13-3.08,9.72,1.18,17.19,6.41,16.95l.08-.04s-.01.08-.01.12l-.07-.06c-2.65.12-4.93,1.14-6.3,3.05-3.02,4.21-.49,11.2,5.65,15.6,6.14,4.4,13.57,4.56,16.59.35Z"/>
        <path class="cls-8" d="M353.5,237.55c2.59-.71,3.24-6.65,1.44-13.27-1.8-6.63-5.36-11.43-7.96-10.72-2.59.71-.2,5.82,1.6,12.45,1.8,6.63,2.32,12.25,4.92,11.55Z"/>
        <path class="cls-8" d="M335.33,259.16c-13,1.42-23.44-8.71-19.97-18.04,1.2-.71,2.64-1.1,4.22-1.18l.07.06s.01-.08.01-.12l-.08.04c-.75.03-1.48-.1-2.18-.36l2.42-.8.24,5.63c2.55,14.04,17.91,9.56,19.56,9.04-.89.34-1.83.61-2.85.8h0c.1,1.74-.29,3.37-1.26,4.71-.06.08-.13.15-.19.23Z"/>
        <g>
          <path class="cls-12" d="M327.55,228.12c-2.78,3.64-5.31,7.53-5.72,12.11-.55,5.79,3.55,11.32,9.48,11.61,2.66.18,5.46-.02,7.83-1.09,3.85-1.61,7.25-5.33,11.74-8.26,2.23-1.46,4.67-2.74,7.24-3.61,1.12-.43,2.39-.81,3.5-1.22,2.97-1.12,13.15-4.84,12.36-8.47-.34-.32-1.36-.73-2.43-.86-6.52-.69-13.59,1.84-18.92,5.64,0,0-3.05-3.96-3.05-3.96,4.21-3.36,9.15-5.66,14.42-6.8,4.77-.89,12.54-1.71,15.27,3.76.79,1.89.68,4.16-.2,5.93-3.45,6.33-11.96,8.85-18.27,11.06-2.42.78-4.7,1.83-6.86,3.25-4.24,2.66-7.8,6.43-12.76,8.45-8.03,3.24-18.84,1.13-22.43-7.41-3.51-7.52-.23-18.93,8.81-20.13h0Z"/>
          <path class="cls-12" d="M345.05,215.64c6.77,4.57,9.86,15.04,6.38,22.47-1.85-7.8-4.86-14.58-6.38-22.47h0Z"/>
          <path class="cls-1" d="M347.97,220.86c7.24-5.78,21.42-7.33,28.13-3.5,6.71,3.83.42,10.49.42,10.49"/>
          <path class="cls-1" d="M319.58,239.91c-5.24.24-9.5-7.23-6.41-16.95,3.08-9.72.76-13.68-4.5-17.13-5.27-3.46,2.33-12.8,10.55-8.27,8.22,4.52,5.13,14.06,8.33,14.81,3.2.76,22.34-5.13,33.26-5.31,10.92-.18,12.43,6.42,11.39,8.83"/>
          <path class="cls-1" d="M336.78,254.22c.1,1.74-.29,3.37-1.26,4.71-3.02,4.21-10.45,4.06-16.59-.35-6.14-4.4-8.67-11.39-5.65-15.6,1.37-1.91,3.65-2.92,6.3-3.05"/>
        </g>
      </g>
    </g>
  </g>
</svg>