<?xml version="1.0" encoding="UTF-8"?>
<svg id="Layer_2" data-name="Layer 2" xmlns="http://www.w3.org/2000/svg" viewBox="0 0 398.47 396.82">
  <defs>
    <style>
      .cls-1, .cls-2, .cls-3, .cls-4, .cls-5 {
        fill: none;
        stroke: #1c1c26;
        stroke-miterlimit: 10;
      }

      .cls-1, .cls-5 {
        stroke-width: 5px;
      }

      .cls-6, .cls-7, .cls-8, .cls-9, .cls-10, .cls-11, .cls-12, .cls-13, .cls-14, .cls-15, .cls-16, .cls-17 {
        stroke-width: 0px;
      }

      .cls-6, .cls-11 {
        fill: #7bb1ff;
      }

      .cls-7, .cls-12 {
        fill: #4269b7;
      }

      .cls-2 {
        stroke-width: 4px;
      }

      .cls-2, .cls-8, .cls-10, .cls-11, .cls-4, .cls-12, .cls-13, .cls-15, .cls-16, .cls-5 {
        fill-rule: evenodd;
      }

      .cls-8, .cls-14 {
        fill: #1c1c26;
      }

      .cls-9 {
        fill: #b3ceff;
      }

      .cls-10 {
        fill: #94e3ff;
      }

      .cls-3, .cls-4 {
        stroke-linecap: round;
        stroke-width: 3px;
      }

      .cls-13 {
        fill: #f22;
      }

      .cls-15, .cls-17 {
        fill: #fff;
      }

      .cls-16 {
        fill: #ff8aa0;
      }
    </style>
  </defs>
  <g id="OBJECTS">
    <g>
      <ellipse class="cls-14" cx="199.21" cy="386.57" rx="97.35" ry="10.25"/>
      <path class="cls-6" d="M177.66,250.84s-11.57,74.33-13.85,118.99h29.49l2.36-118.99h-18Z"/>
      <path class="cls-12" d="M193.96,336.67c-5.7,5.46-15.41,11.83-28.42,9.76-.76,8.28-1.37,16.22-1.73,23.4h29.49l.66-33.16Z"/>
      <path class="cls-14" d="M194.76,288.29l-23.06-3.44c-.42,3.2-1.28,9.94-1.7,13.29l24.6-2.23.15-7.62Z"/>
      <path class="cls-1" d="M177.66,250.84s-11.57,74.33-13.85,118.99h29.49l2.36-118.99h-18Z"/>
      <path class="cls-13" d="M159.65,353.86l-1.09,13.38s-24.79,3.22-24.15,20.11h59.81l.13-33.49h-34.71Z"/>
      <path class="cls-15" d="M157.32,381.93c.75-5.56-2.06-11.07-9.09-11.84-6.72,2.74-14.18,7.9-13.83,17.26h13.32c5.22-1.16,9.25-2.87,9.6-5.42Z"/>
      <path class="cls-4" d="M157.32,381.93c.75-5.56-2.06-11.07-9.09-11.84-6.72,2.74-14.18,7.9-13.83,17.26h13.32c5.22-1.16,9.25-2.87,9.6-5.42Z"/>
      <path class="cls-15" d="M192.67,379.74h-56.03c-1.48,2.16-2.35,4.68-2.23,7.61h59.82l-1.56-7.61Z"/>
      <path class="cls-5" d="M159.65,353.86l-1.09,13.38s-24.79,3.22-24.15,20.11h59.81l.13-33.49h-34.71Z"/>
      <line class="cls-3" x1="136.64" y1="379.74" x2="192.67" y2="379.74"/>
      <path class="cls-17" d="M172.73,363.37l-14.54-1.54c-1.41-.15-2.44-1.41-2.29-2.82h0c.15-1.41,1.41-2.44,2.82-2.29l14.54,1.54c1.41.15,2.44,1.41,2.29,2.82h0c-.15,1.41-1.41,2.44-2.82,2.29Z"/>
      <path class="cls-9" d="M166.88,362.76l-8.69-.9c-1.41-.15-2.44-1.41-2.29-2.82h0c.15-1.41,1.41-2.44,2.82-2.29l8.69.9c1.41.15,2.44,1.41,2.29,2.82h0c-.15,1.41-1.41,2.44-2.82,2.29Z"/>
      <path class="cls-3" d="M172.73,363.37l-14.54-1.54c-1.41-.15-2.44-1.41-2.29-2.82h0c.15-1.41,1.41-2.44,2.82-2.29l14.54,1.54c1.41.15,2.44,1.41,2.29,2.82h0c-.15,1.41-1.41,2.44-2.82,2.29Z"/>
      <path class="cls-17" d="M171.66,368.63l-14.54-1.54c-1.41-.15-2.44-1.41-2.29-2.82h0c.15-1.41,1.41-2.44,2.82-2.29l14.54,1.54c1.41.15,2.44,1.41,2.29,2.82h0c-.15,1.41-1.41,2.44-2.82,2.29Z"/>
      <path class="cls-9" d="M165.8,368.02l-8.69-.9c-1.41-.15-2.44-1.41-2.29-2.82h0c.15-1.41,1.41-2.44,2.82-2.29l8.69.9c1.41.15,2.44,1.41,2.29,2.82h0c-.15,1.41-1.41,2.44-2.82,2.29Z"/>
      <path class="cls-3" d="M171.66,368.63l-14.54-1.54c-1.41-.15-2.44-1.41-2.29-2.82h0c.15-1.41,1.41-2.44,2.82-2.29l14.54,1.54c1.41.15,2.44,1.41,2.29,2.82h0c-.15,1.41-1.41,2.44-2.82,2.29Z"/>
      <path class="cls-6" d="M220.76,250.84s11.57,74.33,13.85,118.99h-29.49s-2.36-118.99-2.36-118.99h18Z"/>
      <path class="cls-12" d="M204.46,336.67c5.7,5.46,15.41,11.83,28.42,9.76.76,8.28,1.37,16.22,1.73,23.4h-29.49l-.66-33.16Z"/>
      <path class="cls-14" d="M203.66,288.29l23.06-3.44c.42,3.2,1.28,9.94,1.7,13.29l-24.6-2.23-.15-7.62Z"/>
      <path class="cls-1" d="M220.76,250.84s11.57,74.33,13.85,118.99h-29.49s-2.36-118.99-2.36-118.99h18Z"/>
      <path class="cls-13" d="M238.77,353.86l1.09,13.38s24.79,3.22,24.15,20.11h-59.81s-.13-33.49-.13-33.49h34.71Z"/>
      <path class="cls-15" d="M241.1,381.93c-.75-5.56,2.06-11.07,9.09-11.84,6.72,2.74,14.18,7.9,13.83,17.26h-13.32c-5.22-1.16-9.25-2.87-9.6-5.42Z"/>
      <path class="cls-4" d="M241.1,381.93c-.75-5.56,2.06-11.07,9.09-11.84,6.72,2.74,14.18,7.9,13.83,17.26h-13.32c-5.22-1.16-9.25-2.87-9.6-5.42Z"/>
      <path class="cls-15" d="M205.75,379.74h56.03c1.48,2.16,2.35,4.68,2.23,7.61h-59.82s1.56-7.61,1.56-7.61Z"/>
      <path class="cls-5" d="M238.77,353.86l1.09,13.38s24.79,3.22,24.15,20.11h-59.81s-.13-33.49-.13-33.49h34.71Z"/>
      <line class="cls-3" x1="261.78" y1="379.74" x2="205.75" y2="379.74"/>
      <path class="cls-17" d="M225.69,363.37l14.54-1.54c1.41-.15,2.44-1.41,2.29-2.82h0c-.15-1.41-1.41-2.44-2.82-2.29l-14.54,1.54c-1.41.15-2.44,1.41-2.29,2.82h0c.15,1.41,1.41,2.44,2.82,2.29Z"/>
      <path class="cls-9" d="M231.54,362.76l8.69-.9c1.41-.15,2.44-1.41,2.29-2.82h0c-.15-1.41-1.41-2.44-2.82-2.29l-8.69.9c-1.41.15-2.44,1.41-2.29,2.82h0c.15,1.41,1.41,2.44,2.82,2.29Z"/>
      <path class="cls-3" d="M225.69,363.37l14.54-1.54c1.41-.15,2.44-1.41,2.29-2.82h0c-.15-1.41-1.41-2.44-2.82-2.29l-14.54,1.54c-1.41.15-2.44,1.41-2.29,2.82h0c.15,1.41,1.41,2.44,2.82,2.29Z"/>
      <path class="cls-17" d="M226.76,368.63l14.54-1.54c1.41-.15,2.44-1.41,2.29-2.82h0c-.15-1.41-1.41-2.44-2.82-2.29l-14.54,1.54c-1.41.15-2.44,1.41-2.29,2.82h0c.15,1.41,1.41,2.44,2.82,2.29Z"/>
      <path class="cls-9" d="M232.62,368.02l8.69-.9c1.41-.15,2.44-1.41,2.29-2.82h0c-.15-1.41-1.41-2.44-2.82-2.29l-8.69.9c-1.41.15-2.44,1.41-2.29,2.82h0c.15,1.41,1.41,2.44,2.82,2.29Z"/>
      <path class="cls-3" d="M226.76,368.63l14.54-1.54c1.41-.15,2.44-1.41,2.29-2.82h0c-.15-1.41-1.41-2.44-2.82-2.29l-14.54,1.54c-1.41.15-2.44,1.41-2.29,2.82h0c.15,1.41,1.41,2.44,2.82,2.29Z"/>
    </g>
    <g>
      <path class="cls-11" d="M159.84,5.47c2.49,37.55,6.29,50.23,39.59,59.08,32.93,8.75,99.22,43.96,100.71,121.38.02.89.04,1.78.04,2.67,0,55.64-45.11,100.75-100.75,100.75-55.64,0-100.75-45.11-100.75-100.75C92.11,69.62,159.84,5.47,159.84,5.47Z"/>
      <g>
        <ellipse class="cls-17" cx="211.4" cy="95.51" rx="14.42" ry="27.72" transform="translate(40.93 252.84) rotate(-67.02)"/>
        <path class="cls-15" d="M155.24,32.78c.33,6.83.2,23.97,20.12,35.47,2.82,1.63,3.83,5.22,2.24,8.06h0c-1.71,3.06-5.67,3.96-8.57,2-23.99-16.2-13.79-45.54-13.79-45.54Z"/>
      </g>
      <path class="cls-12" d="M199.21,261.62c47.65,0,86.87-36.03,91.94-82.32.37,3.34.56,6.74.56,10.18,0,51.09-41.42,92.5-92.5,92.5s-92.5-41.42-92.5-92.5c0-3.44.19-6.84.56-10.18,5.07,46.3,44.3,82.32,91.94,82.32Z"/>
      <path class="cls-5" d="M159.84,5.47c2.49,37.55,6.29,50.23,39.59,59.08,32.93,8.75,99.22,43.96,100.71,121.38.02.89.04,1.78.04,2.67,0,55.64-45.11,100.75-100.75,100.75-55.64,0-100.75-45.11-100.75-100.75C92.11,69.62,159.84,5.47,159.84,5.47Z"/>
    </g>
    <g>
      <g>
        <path class="cls-8" d="M163.76,214.48c8.01,39.78,50.83,32.5,50.83,32.5,0,0-7.72-16.02.64-25.68,0,0-17.63,6.65-42.45-6.32-24.82-12.97,0,0,0,0l-9.02-.49Z"/>
        <path class="cls-15" d="M213.36,221.84c-4.98,1.24-19.46,3.45-38.51-5.83-.05,6.75,7.64,13.06,17.84,14.39,9.78,1.27,18.47-2.49,20.66-8.56Z"/>
        <path class="cls-16" d="M199.73,247.09c-.22-5.84-5.72-12.44-14.04-16.14-5.88-2.61-11.89-3.19-16.49-1.98,7.68,12.72,20.48,16.93,30.54,18.12Z"/>
        <path class="cls-2" d="M163.76,214.48c8.01,39.78,50.83,32.5,50.83,32.5,0,0-7.72-16.02.64-25.68"/>
        <path class="cls-2" d="M166.07,209.84c22.45,20.83,61.48,13.69,65.66,0"/>
      </g>
      <g>
        <g>
          <path class="cls-15" d="M206.69,177.52c-1.06,15.25,7.5,28.26,19.12,29.07,11.63.81,21.91-10.89,22.98-26.13,1.06-15.25-7.5-28.26-19.12-29.07-11.63-.81-21.91,10.89-22.98,26.13Z"/>
          <path class="cls-14" d="M248.79,180.46c-.94-12.36-8.75-28.96-23.35-26.26-8.65,2.05-14.18,10.71-16.04,18.98-3.2,12.84,1.67,30.72,16.42,33.41-7.5.12-14.23-5.51-17.46-12.11-6.82-13.45-4.06-32.39,8.61-41.75,8.01-6.03,19.38-4.79,25.93,2.79,5.93,6.71,7.89,16.32,5.89,24.94h0Z"/>
          <g>
            <path class="cls-8" d="M207.84,179.57c-.78,11.22,5.52,20.79,14.07,21.39,8.55.6,16.12-8.01,16.91-19.23.78-11.22-5.52-20.79-14.07-21.39-8.55-.6-16.12,8.01-16.91,19.23Z"/>
            <polygon class="cls-15" points="239.85 187.48 229.42 182.31 240.31 177.24 239.85 187.48"/>
          </g>
        </g>
        <g>
          <path class="cls-15" d="M153.19,180.07c1.98,15.15,12.96,26.21,24.51,24.7,11.56-1.51,19.32-15.02,17.34-30.17-1.98-15.15-12.96-26.21-24.51-24.7-11.56,1.51-19.32,15.02-17.34,30.17Z"/>
          <path class="cls-14" d="M195.04,174.59c-3.37-11.93-14.32-26.65-28.1-21.1-8.08,3.72-11.77,13.31-11.96,21.78-.59,13.22,7.73,29.78,22.72,29.49-7.32,1.6-15.04-2.58-19.51-8.41-10.97-13.49-10.43-38.91,6.72-47.4,16.6-7.13,30.83,9.79,30.13,25.63h0Z"/>
          <g>
            <path class="cls-8" d="M154.73,181.84c1.46,11.15,9.53,19.29,18.04,18.18,8.5-1.11,14.21-11.05,12.76-22.2-1.46-11.15-9.53-19.29-18.03-18.18-8.5,1.11-14.21,11.05-12.76,22.2Z"/>
            <polygon class="cls-15" points="187.67 183.25 176.42 180.25 186.09 173.13 187.67 183.25"/>
          </g>
        </g>
        <g>
          <g>
            <path class="cls-11" d="M178.29,210.76c-1.06,4.12-7.9,5.93-15.29,4.03-7.38-1.9-12.51-6.78-11.45-10.9,1.06-4.12,7.9-5.93,15.28-4.03,7.38,1.9,12.51,6.78,11.45,10.9Z"/>
            <path class="cls-10" d="M175.74,206.26c-.45,1.75-5.14,2.06-10.49.69-5.34-1.37-9.3-3.91-8.85-5.66.45-1.75,5.14-2.06,10.49-.69,5.34,1.37,9.3,3.91,8.85,5.66Z"/>
            <path class="cls-14" d="M177.89,211.78c-.34,2.42-2.76,4.13-4.92,4.89-6.51,2.2-14.89-.12-18.48-6.15,2.14.79,4.1,1.37,6.08,1.84,3.86.9,7.76,1.46,11.68,1.22,2.04-.16,3.91-.47,5.64-1.8h0Z"/>
            <path class="cls-14" d="M150.95,201.43c7.64-5.82,21.57-5.52,26.75,3.47.67,1.32,1.09,2.88.71,4.29-.66-1.26-1.52-2.15-2.47-2.93-7.02-5.44-16.44-6.26-24.99-4.83h0Z"/>
          </g>
          <g>
            <path class="cls-11" d="M244.98,206.99c.17,3.79-5.56,7.13-12.8,7.46-7.25.33-13.26-2.47-13.44-6.26-.17-3.79,5.56-7.13,12.8-7.46,7.25-.33,13.26,2.47,13.44,6.26Z"/>
            <path class="cls-10" d="M241.41,203.84c.07,1.61-4.12,3.11-9.36,3.35-5.24.24-9.55-.87-9.63-2.48-.07-1.61,4.12-3.11,9.36-3.35,5.24-.24,9.55.87,9.63,2.48Z"/>
            <path class="cls-14" d="M243.2,210.46c-.02,2.32-2.19,4.16-4.14,5.11-5.88,2.69-13.9,1.58-18.06-3.57,4.02.68,7.65,1.01,11.58.98,3.67-.2,7.64-.01,10.62-2.51h0Z"/>
            <path class="cls-14" d="M218.83,207.2c.65-5.82,7.52-7.88,12.42-8.39,4.91-.72,12.63.88,13.4,6.81-1.96-1.81-4.09-2.32-6.28-2.67-4.41-.55-9.42-.36-13.76.57-2.37.52-4.25,1.68-5.78,3.68h0Z"/>
          </g>
        </g>
      </g>
      <g>
        <path class="cls-14" d="M196.37,205.32c1.59-7.06,11.49-13.02,17.53-7.03,3.31,3.62,1.34,9.21-1.47,12.16.95-3.25,2.1-7.55-.62-10.1-5.16-3.59-11.41,1.53-15.44,4.97h0Z"/>
        <path class="cls-8" d="M203.74,198.49c-1.37-3.29-1.42-8.65-1.42-8.65,0,0,3.15,6.24,6.29,7.16l-4.87,1.49Z"/>
      </g>
      <g>
        <path class="cls-8" d="M240.21,128.05c-14.03-5.46-22.88,3.19-22.88,3.19l3.14,8.71c9.29-5.61,25.35-4.06,31.94,8.9,0,0,0-16.06-12.19-20.81Z"/>
        <path class="cls-8" d="M158.69,128.05c-12.67,4.74-12.67,20.81-12.67,20.81,6.84-12.97,23.53-14.52,33.19-8.9l3.26-8.71s-9.19-8.65-23.77-3.19Z"/>
      </g>
    </g>
    <g>
      <g>
        <path class="cls-11" d="M144.52,274.28c-59.98,33.01-105.68-12.24-104.3-30.26,1.38-18.02,16.54-19.35,16.54-19.35,0,0,29.96,51.36,74.2,37.73l13.56,11.88Z"/>
        <path class="cls-7" d="M118.59,278.23c-11.37,1.78-39.19,3.65-60.43-15.2-1.23-1.09-1.19-3.03.08-4.07l6.36-5.24c1.03-.85,2.54-.81,3.52.1,5.27,4.93,22.96,19.29,50.04,19.1.7,0,1.37.25,1.87.73h0c1.61,1.53.76,4.24-1.44,4.58Z"/>
        <path class="cls-5" d="M144.52,274.28c-59.98,33.01-105.68-12.24-104.3-30.26,1.38-18.02,16.54-19.35,16.54-19.35,0,0,29.96,51.36,74.2,37.73l13.56,11.88Z"/>
      </g>
      <g>
        <g>
          <path class="cls-17" d="M29.61,248.87c3.46,6.37,14.04,6.84,23.62,1.05,9.58-5.79,14.54-15.64,11.08-22.01-3.46-6.37-14.04-6.84-23.62-1.05-9.58,5.79-14.54,15.64-11.08,22.01Z"/>
          <path class="cls-9" d="M55.24,248.59c-.65.46-1.31.91-2,1.33-9.58,5.79-20.16,5.32-23.62-1.05-2.49-4.58-.6-10.97,4.22-16.35,8-1.46,16.04-1.83,14.12,3.16-3.04,7.9.76,16.4,7.29,12.91Z"/>
          <path class="cls-1" d="M29.61,248.87c3.46,6.37,14.04,6.84,23.62,1.05,9.58-5.79,14.54-15.64,11.08-22.01-3.46-6.37-14.04-6.84-23.62-1.05-9.58,5.79-14.54,15.64-11.08,22.01Z"/>
        </g>
        <path class="cls-17" d="M6.07,224.17c-.24-1.19-.72-4.34.74-7.9,1.38-3.38,3.74-5.25,4.74-5.95-.04-1.48-.67-23.33,27.69-11.47,0,0,.27-23.03,14.12-25.63,11.84-2.22,12.55,13.48,5.71,19.5-6.76,5.95-3.55,14.82-1.44,19.01-.18,3.33-1.46,15.36-10.43,22.04,0,0-.63,8.46-8.47,11.96-.43.1-.85.19-1.26.24-1.98-.48-4.15-.82-6.23-1.05-2.86-1.5-4.26-3.93-4.26-3.93l-1.25.62c-5.16,2.57-11.25,2.86-16.49.44-2.4-1.1-4.59-2.72-6-5.1-4.77-8.05,2.85-12.79,2.85-12.79Z"/>
        <path class="cls-9" d="M6.07,224.17c-.19-.92-.52-3.04.03-5.62,2.12,4.42,6.15,8.82,12.3,8.93,9.08.17,11.59-5.89,11.59-5.89-14.82.64-18.45-11.28-18.45-11.28h0c-.02-.69-.16-5.73,2.5-9.78-1.41,4.14-1.1,9.24,6.62,12.24,14.6,5.67,17.96-1.04,17.96-1.04l.84,2.23c3.88,14.45,14.3,11.67,17.08-4.61.35.89.72,1.7,1.07,2.38-.18,3.33-1.46,15.36-10.43,22.04,0,0-.63,8.46-8.47,11.96-.43.1-.85.19-1.26.24-1.98-.48-4.15-.82-6.23-1.05-2.86-1.5-4.26-3.93-4.26-3.93l-1.25.62c-5.16,2.57-11.25,2.86-16.49.44-2.4-1.1-4.59-2.72-6-5.1-4.77-8.05,2.85-12.79,2.85-12.79Z"/>
        <g>
          <path class="cls-9" d="M14.69,200.75c.13-.45.25-.7.25-.7l-.25.7Z"/>
          <path class="cls-14" d="M36.61,203.11c-.07-5.48,1.39-10.49,1.94-15.88.33-3.66,1.16-7.29,3.35-10.39,3.94-6.26,14.5-10.23,20.44-4.11,6.17,7.03,2.24,16.08-2.42,22.57-.35.5-.62.98-.81,1.57-.81,2.69-.16,5.46.32,8.43.81,4.39,1.54,9.27.42,13.77-1.04,4.69-4.69,8.8-9.22,10.19,2.49-3.45,4.39-6.9,4.76-11.01.65-6.01-1.87-12.57-1.72-19.07.03-2.1.63-4.52,1.89-6.35.15-.21.5-.78.65-1,2.91-4.55,6.33-10.79,2.14-15.47-.84-.83-1.97-1.1-3.23-1.12-5.34,0-9.73,4.61-10.8,9.72-1.34,5.92-1.56,15.09-7.7,18.15h0Z"/>
          <path class="cls-14" d="M36.71,201.59c-5.46-4.32-14.05-5.52-19.87-1.38-4.64,3.27-3.65,10.24.22,13.75,4.22,3.69,13.17,7.2,18.01,3.7,5.52-5.52-1.86-11.8-7.83-12.02-1.76-.21-3.62-.07-5.91.27,2.31-4.4,8.34-5.45,12.75-3.64,4.84,1.76,8.55,6.9,7.86,12.24-2.3,14.79-22.51,10.03-29.6,1.77-3.19-3.8-4.63-9.13-3.03-13.98,2.42-7.34,10.88-10.25,17.92-9.65,4.68.43,9.07,2.22,12.74,5.14,0,0-3.27,3.79-3.27,3.79h0Z"/>
          <path class="cls-14" d="M21.48,201.09c2.48-1.19,5.78-.5,7.89,1.31,0,0-3.15,2.47-3.15,2.47-.66-2.09-2.48-3.51-4.75-3.79h0Z"/>
          <path class="cls-1" d="M33.09,221.29c1.69,4.74-.49,15.69-15.8,11.9-15.31-3.79-12.26-20.62-5.35-22.52"/>
          <path class="cls-14" d="M36.97,220.55c-.33,2.18-.04,4.71.96,6.75.35.73.84,1.39,1.42,2.02-1.61-.7-3-1.96-4.02-3.42-1.09-1.6-1.86-3.17-2.35-5.13,0,0,3.99-.21,3.99-.21h0Z"/>
          <path class="cls-1" d="M26.51,233.58c4.89,1.77,2.14,12.01-11.53,10.66-13.67-1.35-15.7-18.25-8.06-19.71"/>
          <path class="cls-14" d="M44.8,239.2c1.64,5.02-3.33,9.49-8.1,9.88-4.95.55-10.22-1.58-12.46-6.34,0,0,4.36-2.44,4.36-2.44.88.93,2.05,1.73,3.39,2.29,5.04,2.2,8.64.1,12.81-3.39h0Z"/>
        </g>
      </g>
    </g>
    <g>
      <g>
        <path class="cls-11" d="M253.91,275.23c59.96,33.06,105.69-12.16,104.32-30.18-1.37-18.02-16.52-19.36-16.52-19.36,0,0-30,51.34-74.23,37.67l-13.57,11.87Z"/>
        <path class="cls-7" d="M279.84,279.2c11.37,1.79,39.19,3.68,60.44-15.16,1.23-1.09,1.19-3.03-.08-4.07l-6.35-5.24c-1.03-.85-2.54-.82-3.52.1-5.28,4.93-22.97,19.27-50.05,19.06-.7,0-1.37.25-1.87.73h0c-1.61,1.53-.76,4.24,1.44,4.58Z"/>
        <path class="cls-5" d="M253.91,275.23c59.96,33.06,105.69-12.16,104.32-30.18-1.37-18.02-16.52-19.36-16.52-19.36,0,0-30,51.34-74.23,37.67l-13.57,11.87Z"/>
      </g>
      <g>
        <g>
          <path class="cls-17" d="M368.84,249.9c-3.47,6.37-14.04,6.83-23.62,1.04-9.58-5.79-14.53-15.65-11.06-22.02,3.47-6.37,14.04-6.83,23.62-1.04,9.58,5.79,14.53,15.65,11.06,22.02Z"/>
          <path class="cls-9" d="M343.22,249.61c.64.46,1.31.91,2,1.33,9.58,5.79,20.15,5.33,23.62-1.04,2.5-4.58.61-10.97-4.2-16.35-8-1.47-16.04-1.84-14.12,3.15,3.03,7.9-.77,16.4-7.3,12.91Z"/>
          <path class="cls-1" d="M368.84,249.9c-3.47,6.37-14.04,6.83-23.62,1.04-9.58-5.79-14.53-15.65-11.06-22.02,3.47-6.37,14.04-6.83,23.62-1.04,9.58,5.79,14.53,15.65,11.06,22.02Z"/>
        </g>
        <path class="cls-17" d="M392.4,225.23c.24-1.19.73-4.34-.73-7.9-1.38-3.38-3.73-5.25-4.73-5.96.04-1.48.68-23.33-27.68-11.49,0,0-.25-23.03-14.1-25.64-11.84-2.23-12.56,13.47-5.73,19.5,6.76,5.96,3.54,14.82,1.43,19.01.18,3.33,1.45,15.36,10.42,22.05,0,0,.62,8.46,8.46,11.96.43.1.85.19,1.26.24,1.98-.48,4.15-.82,6.23-1.05,2.86-1.5,4.26-3.92,4.26-3.92l1.25.62c5.16,2.58,11.25,2.86,16.49.46,2.4-1.1,4.59-2.72,6-5.09,4.78-8.05-2.84-12.79-2.84-12.79Z"/>
        <path class="cls-9" d="M392.4,225.23c.19-.92.52-3.04-.03-5.62-2.12,4.42-6.16,8.81-12.31,8.92-9.08.16-11.59-5.9-11.59-5.9,14.82.65,18.46-11.26,18.46-11.26h0c.02-.69.16-5.73-2.49-9.78,1.41,4.14,1.09,9.24-6.63,12.24-14.61,5.66-17.96-1.06-17.96-1.06l-.84,2.23c-3.89,14.45-14.31,11.66-17.08-4.62-.35.89-.73,1.7-1.07,2.38.18,3.33,1.45,15.36,10.42,22.05,0,0,.62,8.46,8.46,11.96.43.1.85.19,1.26.24,1.98-.48,4.15-.82,6.23-1.05,2.86-1.5,4.26-3.92,4.26-3.92l1.25.62c5.16,2.58,11.25,2.86,16.49.46,2.4-1.1,4.59-2.72,6-5.09,4.78-8.05-2.84-12.79-2.84-12.79Z"/>
        <g>
          <path class="cls-9" d="M383.8,201.79c-.13-.45-.25-.7-.25-.7l.25.7Z"/>
          <path class="cls-14" d="M361.88,204.14c-6.13-3.07-6.36-12.24-7.69-18.16-1.07-5.11-5.46-9.73-10.8-9.73-1.26.02-2.39.29-3.23,1.12-4.19,4.67-.77,10.92,2.13,15.47.16.22.5.78.65,1,1.26,1.83,1.86,4.25,1.89,6.35.15,6.49-2.38,13.06-1.73,19.07.37,4.11,2.26,7.56,4.75,11.01-4.53-1.39-8.18-5.51-9.22-10.2-1.11-4.5-.38-9.39.43-13.77.48-2.96,1.13-5.74.32-8.43-.19-.59-.46-1.07-.81-1.57-4.66-6.49-8.58-15.56-2.4-22.57,5.95-6.12,16.49-2.14,20.43,4.13,2.18,3.11,3.01,6.74,3.34,10.4.55,5.39,2.01,10.4,1.93,15.88h0Z"/>
          <path class="cls-14" d="M358.52,198.83c5.46-4.37,12.86-6.28,19.7-4.59,4.66,1.05,9.46,4.25,10.96,9.12,2.41,7.3-2.01,15.08-8.59,18.34-6.13,3.19-14.2,5.5-20.37.85-4.26-3.47-4.91-10.29-1.73-14.63,3.95-6.17,14.79-7.9,18.67-.97-2.28-.35-4.15-.48-5.91-.28-4.46.35-9.98,3.37-9.72,8.33.31,3.18,2.87,5.05,6.15,5.11,4.68.13,10.07-1.9,13.74-5.1,3.87-3.51,4.87-10.48.23-13.75-5.82-4.14-14.41-2.95-19.87,1.36,0,0-3.26-3.79-3.26-3.79h0Z"/>
          <path class="cls-14" d="M377.01,202.13c-2.26.27-4.09,1.69-4.75,3.78,0,0-3.14-2.47-3.14-2.47,2.11-1.82,5.41-2.5,7.89-1.31h0Z"/>
          <path class="cls-1" d="M365.39,222.32c-1.7,4.74.48,15.69,15.79,11.91,15.32-3.78,12.27-20.61,5.37-22.51"/>
          <path class="cls-14" d="M365.5,221.79c-.95,3.55-2.98,7.01-6.38,8.55,2.2-2.27,2.82-5.77,2.39-8.76,0,0,3.99.22,3.99.22h0Z"/>
          <path class="cls-1" d="M371.96,234.61c-4.89,1.77-2.14,12.01,11.53,10.67,13.67-1.34,15.72-18.24,8.08-19.7"/>
          <path class="cls-14" d="M353.66,240.22c4.16,3.5,7.77,5.6,12.81,3.4,1.35-.57,2.52-1.37,3.39-2.29l4.36,2.45c-2.25,4.75-7.51,6.89-12.46,6.33-4.77-.4-9.74-4.87-8.1-9.89h0Z"/>
        </g>
      </g>
    </g>
  </g>
</svg>