<?xml version="1.0" encoding="UTF-8"?>
<svg id="Layer_2" data-name="Layer 2" xmlns="http://www.w3.org/2000/svg" viewBox="0 0 326.68 395.63">
  <defs>
    <style>
      .cls-1, .cls-2, .cls-3, .cls-4 {
        fill: none;
        stroke: #1c1c26;
        stroke-miterlimit: 10;
      }

      .cls-1, .cls-4 {
        stroke-width: 5px;
      }

      .cls-5, .cls-6, .cls-7, .cls-8, .cls-9, .cls-10, .cls-11, .cls-12, .cls-13, .cls-14, .cls-15 {
        stroke-width: 0px;
      }

      .cls-5, .cls-10 {
        fill: #7bb1ff;
      }

      .cls-6, .cls-11 {
        fill: #4269b7;
      }

      .cls-7, .cls-10, .cls-3, .cls-11, .cls-12, .cls-14, .cls-4 {
        fill-rule: evenodd;
      }

      .cls-7, .cls-13 {
        fill: #1c1c26;
      }

      .cls-8 {
        fill: #b3ceff;
      }

      .cls-9 {
        fill: #94e3ff;
      }

      .cls-2, .cls-3 {
        stroke-linecap: round;
        stroke-width: 3px;
      }

      .cls-12 {
        fill: #f22;
      }

      .cls-14, .cls-15 {
        fill: #fff;
      }
    </style>
  </defs>
  <g id="OBJECTS">
    <g>
      <ellipse class="cls-13" cx="123.64" cy="385.38" rx="97.35" ry="10.25"/>
      <path class="cls-5" d="M102.09,249.65s-11.57,74.33-13.85,118.99h29.49l2.36-118.99h-18Z"/>
      <path class="cls-11" d="M118.39,335.48c-5.7,5.46-15.41,11.83-28.42,9.76-.76,8.28-1.37,16.22-1.73,23.4h29.49l.66-33.16Z"/>
      <path class="cls-13" d="M119.2,287.09l-23.06-3.44c-.42,3.2-1.28,9.94-1.7,13.29l24.6-2.23.15-7.62Z"/>
      <path class="cls-1" d="M102.09,249.65s-11.57,74.33-13.85,118.99h29.49l2.36-118.99h-18Z"/>
      <path class="cls-12" d="M84.08,352.67l-1.09,13.38s-24.79,3.22-24.15,20.11h59.81l.13-33.49h-34.71Z"/>
      <path class="cls-14" d="M81.76,380.74c.75-5.56-2.06-11.07-9.09-11.84-6.72,2.74-14.18,7.9-13.83,17.26h13.32c5.22-1.16,9.25-2.87,9.6-5.42Z"/>
      <path class="cls-3" d="M81.76,380.74c.75-5.56-2.06-11.07-9.09-11.84-6.72,2.74-14.18,7.9-13.83,17.26h13.32c5.22-1.16,9.25-2.87,9.6-5.42Z"/>
      <path class="cls-14" d="M117.1,378.55h-56.03c-1.48,2.16-2.35,4.68-2.23,7.61h59.82l-1.56-7.61Z"/>
      <path class="cls-4" d="M84.08,352.67l-1.09,13.38s-24.79,3.22-24.15,20.11h59.81l.13-33.49h-34.71Z"/>
      <line class="cls-2" x1="61.08" y1="378.55" x2="117.1" y2="378.55"/>
      <path class="cls-15" d="M97.17,362.17l-14.54-1.54c-1.41-.15-2.44-1.41-2.29-2.82h0c.15-1.41,1.41-2.44,2.82-2.29l14.54,1.54c1.41.15,2.44,1.41,2.29,2.82h0c-.15,1.41-1.41,2.44-2.82,2.29Z"/>
      <path class="cls-8" d="M91.31,361.57l-8.69-.9c-1.41-.15-2.44-1.41-2.29-2.82h0c.15-1.41,1.41-2.44,2.82-2.29l8.69.9c1.41.15,2.44,1.41,2.29,2.82h0c-.15,1.41-1.41,2.44-2.82,2.29Z"/>
      <path class="cls-2" d="M97.17,362.17l-14.54-1.54c-1.41-.15-2.44-1.41-2.29-2.82h0c.15-1.41,1.41-2.44,2.82-2.29l14.54,1.54c1.41.15,2.44,1.41,2.29,2.82h0c-.15,1.41-1.41,2.44-2.82,2.29Z"/>
      <path class="cls-15" d="M96.09,367.43l-14.54-1.54c-1.41-.15-2.44-1.41-2.29-2.82h0c.15-1.41,1.41-2.44,2.82-2.29l14.54,1.54c1.41.15,2.44,1.41,2.29,2.82h0c-.15,1.41-1.41,2.44-2.82,2.29Z"/>
      <path class="cls-8" d="M90.24,366.83l-8.69-.9c-1.41-.15-2.44-1.41-2.29-2.82h0c.15-1.41,1.41-2.44,2.82-2.29l8.69.9c1.41.15,2.44,1.41,2.29,2.82h0c-.15,1.41-1.41,2.44-2.82,2.29Z"/>
      <path class="cls-2" d="M96.09,367.43l-14.54-1.54c-1.41-.15-2.44-1.41-2.29-2.82h0c.15-1.41,1.41-2.44,2.82-2.29l14.54,1.54c1.41.15,2.44,1.41,2.29,2.82h0c-.15,1.41-1.41,2.44-2.82,2.29Z"/>
      <path class="cls-5" d="M145.19,249.65s11.57,74.33,13.85,118.99h-29.49s-2.36-118.99-2.36-118.99h18Z"/>
      <path class="cls-11" d="M128.9,335.48c5.7,5.46,15.41,11.83,28.42,9.76.76,8.28,1.37,16.22,1.73,23.4h-29.49l-.66-33.16Z"/>
      <path class="cls-13" d="M128.09,287.09l23.06-3.44c.42,3.2,1.28,9.94,1.7,13.29l-24.6-2.23-.15-7.62Z"/>
      <path class="cls-1" d="M145.19,249.65s11.57,74.33,13.85,118.99h-29.49s-2.36-118.99-2.36-118.99h18Z"/>
      <path class="cls-12" d="M163.21,352.67l1.09,13.38s24.79,3.22,24.15,20.11h-59.81s-.13-33.49-.13-33.49h34.71Z"/>
      <path class="cls-14" d="M165.53,380.74c-.75-5.56,2.06-11.07,9.09-11.84,6.72,2.74,14.18,7.9,13.83,17.26h-13.32c-5.22-1.16-9.25-2.87-9.6-5.42Z"/>
      <path class="cls-3" d="M165.53,380.74c-.75-5.56,2.06-11.07,9.09-11.84,6.72,2.74,14.18,7.9,13.83,17.26h-13.32c-5.22-1.16-9.25-2.87-9.6-5.42Z"/>
      <path class="cls-14" d="M130.19,378.55h56.03c1.48,2.16,2.35,4.68,2.23,7.61h-59.82s1.56-7.61,1.56-7.61Z"/>
      <path class="cls-4" d="M163.21,352.67l1.09,13.38s24.79,3.22,24.15,20.11h-59.81s-.13-33.49-.13-33.49h34.71Z"/>
      <line class="cls-2" x1="186.21" y1="378.55" x2="130.19" y2="378.55"/>
      <path class="cls-15" d="M150.12,362.17l14.54-1.54c1.41-.15,2.44-1.41,2.29-2.82h0c-.15-1.41-1.41-2.44-2.82-2.29l-14.54,1.54c-1.41.15-2.44,1.41-2.29,2.82h0c.15,1.41,1.41,2.44,2.82,2.29Z"/>
      <path class="cls-8" d="M155.97,361.57l8.69-.9c1.41-.15,2.44-1.41,2.29-2.82h0c-.15-1.41-1.41-2.44-2.82-2.29l-8.69.9c-1.41.15-2.44,1.41-2.29,2.82h0c.15,1.41,1.41,2.44,2.82,2.29Z"/>
      <path class="cls-2" d="M150.12,362.17l14.54-1.54c1.41-.15,2.44-1.41,2.29-2.82h0c-.15-1.41-1.41-2.44-2.82-2.29l-14.54,1.54c-1.41.15-2.44,1.41-2.29,2.82h0c.15,1.41,1.41,2.44,2.82,2.29Z"/>
      <path class="cls-15" d="M151.2,367.43l14.54-1.54c1.41-.15,2.44-1.41,2.29-2.82h0c-.15-1.41-1.41-2.44-2.82-2.29l-14.54,1.54c-1.41.15-2.44,1.41-2.29,2.82h0c.15,1.41,1.41,2.44,2.82,2.29Z"/>
      <path class="cls-8" d="M157.05,366.83l8.69-.9c1.41-.15,2.44-1.41,2.29-2.82h0c-.15-1.41-1.41-2.44-2.82-2.29l-8.69.9c-1.41.15-2.44,1.41-2.29,2.82h0c.15,1.41,1.41,2.44,2.82,2.29Z"/>
      <path class="cls-2" d="M151.2,367.43l14.54-1.54c1.41-.15,2.44-1.41,2.29-2.82h0c-.15-1.41-1.41-2.44-2.82-2.29l-14.54,1.54c-1.41.15-2.44,1.41-2.29,2.82h0c.15,1.41,1.41,2.44,2.82,2.29Z"/>
    </g>
    <g>
      <path class="cls-14" d="M84.93,4.28c2.49,37.55,6.29,50.23,39.59,59.08,32.93,8.75,99.22,43.96,100.71,121.38.02.89.04,1.78.04,2.67,0,55.64-45.11,100.75-100.75,100.75-55.64,0-100.75-45.11-100.75-100.75C17.19,68.43,84.93,4.28,84.93,4.28Z"/>
      <path class="cls-10" d="M75.68,134.42c3.48-1.07,6.7-2.97,10.25-3.79,157.56-36.32,191.97,148.33,38.58,158.72-80.28,3.03-156.1-121.92-48.83-154.93Z"/>
      <path class="cls-11" d="M124.29,261.62c47.65,0,86.87-36.03,91.94-82.32.37,3.34.56,6.74.56,10.18,0,51.09-41.42,92.5-92.5,92.5S31.79,240.57,31.79,189.48c0-3.44.19-6.84.56-10.18,5.07,46.3,44.3,82.32,91.94,82.32Z"/>
      <path class="cls-4" d="M84.93,5.47c2.49,37.55,6.29,50.23,39.59,59.08,32.93,8.75,99.22,43.96,100.71,121.38.02.89.04,1.78.04,2.67,0,55.64-45.11,100.75-100.75,100.75-55.64,0-100.75-45.11-100.75-100.75C17.19,69.62,84.93,5.47,84.93,5.47Z"/>
    </g>
    <g>
      <g>
        <g>
          <path class="cls-14" d="M120.61,176.59c2.22,17.13-6.57,32.39-19.64,34.08-13.07,1.69-25.45-10.83-27.67-27.96-2.22-17.13,6.57-32.39,19.64-34.08,13.06-1.69,25.45,10.83,27.67,27.96Z"/>
          <path class="cls-13" d="M73.3,182.71c-5.54-17.22,5.22-39.9,25.54-36.9,21.23,4.26,29.32,31.94,21.11,50.06-3.23,7.67-10.5,14.48-18.98,14.8,23.98-6.42,22.38-45.15,3.41-56.53-11.88-7.26-23.63,1.36-27.92,13.01-2.02,4.97-2.82,10.17-3.16,15.56h0Z"/>
          <path class="cls-7" d="M87.83,146.35c-16.93,7.52-18.62,24.03-32.06,24.43,0,0,11.05,7.43,18.65,4.12,0,0,4.14-18.44,20.29-20.93,12.44-1.92,20.69,11.34,20.69,11.34,0,0-9.54-24.16-27.56-18.95Z"/>
          <g>
            <path class="cls-7" d="M74.29,185.53c1.75,12.59,10.95,21.72,20.55,20.39,9.6-1.33,15.97-12.62,14.22-25.21-1.75-12.59-10.95-21.72-20.55-20.39-9.6,1.33-15.97,12.62-14.22,25.21Z"/>
            <path class="cls-14" d="M108.78,176.46c.39,1.34.7,2.74.89,4.19.26,1.89.31,3.74.21,5.54l-10.67-2.66,9.57-7.07Z"/>
          </g>
        </g>
        <g>
          <ellipse class="cls-15" cx="150.63" cy="179.65" rx="31.28" ry="23.85" transform="translate(-47.04 305.71) rotate(-82.55)"/>
          <path class="cls-13" d="M126.97,176.56c-.95-18.06,15.26-37.24,34.13-29.13,19.43,9.55,20.17,38.38,7.6,53.79-5.08,6.59-13.86,11.31-22.13,9.45,24.82-.07,33.19-37.92,17.77-53.77-9.63-10.06-23.19-4.73-30.32,5.43-3.23,4.29-5.33,9.1-7.04,14.23h0Z"/>
          <path class="cls-7" d="M159.46,146.35c16.93,7.52,18.62,24.03,32.06,24.43,0,0-11.05,7.43-18.65,4.12,0,0-4.14-18.44-20.29-20.93-12.44-1.92-20.69,11.34-20.69,11.34,0,0,9.54-24.16,27.56-18.95Z"/>
          <g>
            <path class="cls-7" d="M127.53,181.74c-1.35,12.64,5.36,23.72,15,24.76,9.64,1.03,18.55-8.38,19.9-21.02,1.35-12.64-5.36-23.72-15-24.75-9.64-1.03-18.55,8.38-19.9,21.02Z"/>
            <path class="cls-14" d="M163.17,181.28c.05,1.42.01,2.86-.14,4.34-.21,1.92-.6,3.75-1.13,5.5l-9.66-5.24,10.93-4.6Z"/>
          </g>
        </g>
      </g>
      <g>
        <path class="cls-6" d="M168.81,212.41s-5.74,16.8-29.19,25.39c-21.64,7.93-46.66-4.51-50.76-14.88,0,0,20.81,13.19,42.37,8.16,21.56-5.03,27.83-17.96,27.83-17.96l9.76-.71Z"/>
        <g>
          <path class="cls-5" d="M143.37,215.42c14.48-21.82,30.05-21.41,32.82-13.13,1.86,5.58-32.82,13.13-32.82,13.13Z"/>
          <path class="cls-9" d="M172.28,200.36c.43,1.38-2.31,3.46-6.12,4.63-3.81,1.18-7.24,1.01-7.66-.37-.43-1.38,2.31-3.46,6.12-4.63,3.81-1.18,7.24-1.01,7.66.37Z"/>
          <path class="cls-13" d="M143.37,215.42c3.39-10.43,15.7-23.61,27.65-19.02,1.67.72,3.19,1.97,3.88,3.57-1.78-1.19-3.6-1.6-5.57-1.55-10.5.45-18.4,10.7-25.96,17h0Z"/>
        </g>
        <g>
          <path class="cls-13" d="M162.05,214.3c-10.39,13.42-27.65,21.17-44.61,19.98-12.54-.75-25.42-5.68-33.64-15.47-2.68-3.24-4.8-6.94-5.92-10.91,4.2,7.07,10.31,12.39,17.23,16.08,21.38,11.43,48.37,6.35,64.21-11.97,0,0,2.73,2.28,2.73,2.28h0Z"/>
          <path class="cls-13" d="M171.5,209.97c-4.29,8.15-15.67,6.89-18.5-1.67,2.95,1.79,5.76,3.53,9.04,3.92,3.27.48,6.43-1.03,9.46-2.26h0Z"/>
        </g>
      </g>
    </g>
    <g>
      <g>
        <path class="cls-10" d="M178.32,274.43c56.13,39.21,106.38-.93,106.92-18.99.54-18.06-14.38-20.99-14.38-20.99,0,0-35.26,47.88-77.8,29.62l-14.74,10.37Z"/>
        <path class="cls-6" d="M203.68,281.12c11.11,2.98,38.58,7.8,61.7-8.68,1.34-.95,1.5-2.89.35-4.06l-5.76-5.89c-.94-.96-2.44-1.08-3.51-.27-5.77,4.35-24.88,16.74-51.78,13.66-.69-.08-1.39.11-1.94.53h0c-1.76,1.35-1.2,4.13.94,4.71Z"/>
        <path class="cls-4" d="M178.32,274.43c56.13,39.21,106.38-.93,106.92-18.99.54-18.06-14.38-20.99-14.38-20.99,0,0-35.26,47.88-77.8,29.62l-14.74,10.37Z"/>
      </g>
      <g>
        <g>
          <path class="cls-15" d="M295.28,261.39c-4.12,5.96-14.69,5.31-23.6-1.47-8.91-6.77-12.8-17.1-8.67-23.06,4.12-5.96,14.69-5.31,23.6,1.47,8.91,6.77,12.8,17.1,8.67,23.06Z"/>
          <path class="cls-8" d="M269.83,258.4c.59.53,1.2,1.04,1.85,1.53,8.91,6.77,19.48,7.43,23.6,1.47,2.97-4.29,1.77-10.84-2.45-16.71-7.8-2.3-15.75-3.53-14.37,1.64,2.18,8.18-2.5,16.23-8.62,12.06Z"/>
          <path class="cls-1" d="M295.28,261.39c-4.12,5.96-14.69,5.31-23.6-1.47-8.91-6.77-12.8-17.1-8.67-23.06,4.12-5.96,14.69-5.31,23.6,1.47,8.91,6.77,12.8,17.1,8.67,23.06Z"/>
        </g>
        <path class="cls-15" d="M321.32,239.35c.37-1.15,1.18-4.24.11-7.94-1.02-3.51-3.16-5.61-4.08-6.42.2-1.47,3.14-23.13-26.31-14.35,0,0,2.19-22.93-11.32-26.98-11.54-3.46-13.92,12.07-7.76,18.79,6.09,6.64,1.96,15.11-.59,19.05-.17,3.33-.18,15.43,8.03,23.02,0,0-.28,8.47,7.15,12.79.42.15.83.28,1.23.37,2.02-.27,4.21-.37,6.31-.38,3-1.19,4.65-3.45,4.65-3.45l1.18.75c4.86,3.11,10.88,4.04,16.35,2.2,2.5-.84,4.86-2.22,6.51-4.43,5.6-7.5-1.47-13.02-1.47-13.02Z"/>
        <path class="cls-8" d="M321.32,239.35c.29-.9.84-2.97.56-5.59-2.57,4.17-7.05,8.11-13.18,7.57-9.04-.8-10.9-7.09-10.9-7.09,14.67,2.21,19.54-9.25,19.54-9.25h0c.09-.68.77-5.68-1.44-9.99.97,4.27.11,9.31-7.89,11.47-15.12,4.09-17.75-2.95-17.75-2.95l-1.07,2.12c-5.4,13.96-15.46,10.08-16.49-6.4-.45.85-.9,1.61-1.31,2.25-.17,3.33-.18,15.43,8.03,23.02,0,0-.28,8.47,7.15,12.79.42.15.83.28,1.23.37,2.02-.27,4.21-.37,6.31-.38,3-1.19,4.65-3.45,4.65-3.45l1.18.75c4.86,3.11,10.88,4.04,16.35,2.2,2.5-.84,4.86-2.22,6.51-4.43,5.6-7.5-1.47-13.02-1.47-13.02Z"/>
        <g>
          <path class="cls-8" d="M315.24,215.13c-.09-.46-.18-.73-.18-.73l.18.73Z"/>
          <path class="cls-13" d="M293.19,215.15c-5.78-3.7-5.03-12.85-5.73-18.87-.53-5.19-4.4-10.26-9.71-10.81-1.25-.11-2.41.04-3.33.77-4.66,4.2-1.92,10.77.49,15.61.13.24.42.83.54,1.06,1.06,1.95,1.4,4.42,1.21,6.51-.54,6.47-3.75,12.74-3.74,18.78-.07,4.12,1.45,7.75,3.56,11.45-4.36-1.86-7.55-6.34-8.09-11.11-.63-4.59.61-9.37,1.88-13.65.79-2.9,1.73-5.59,1.21-8.35-.13-.61-.34-1.11-.64-1.65-3.94-6.95-6.88-16.38,0-22.7,6.56-5.45,16.62-.38,19.88,6.26,1.84,3.32,2.28,7.02,2.22,10.69-.02,5.42.9,10.55.24,16h0Z"/>
          <path class="cls-13" d="M290.41,209.52c5.89-3.77,13.45-4.89,20.07-2.49,4.52,1.54,8.96,5.23,9.94,10.23,1.63,7.52-3.59,14.78-10.48,17.33-6.43,2.52-14.7,3.97-20.34-1.31-3.87-3.9-3.8-10.75-.18-14.73,4.58-5.72,15.54-6.3,18.66,1.01-2.23-.59-4.08-.92-5.85-.9-4.47-.12-10.28,2.29-10.54,7.25-.03,3.2,2.32,5.33,5.58,5.73,4.64.62,10.21-.83,14.21-3.62,4.22-3.08,5.95-9.9,1.69-13.65-5.35-4.73-14.02-4.46-19.91-.75,0,0-2.85-4.11-2.85-4.11h0Z"/>
          <path class="cls-13" d="M308.45,214.75c-2.28.03-4.24,1.25-5.12,3.26,0,0-2.86-2.79-2.86-2.79,2.29-1.58,5.65-1.91,7.99-.47h0Z"/>
          <path class="cls-1" d="M294.76,233.6c-2.19,4.53-1.18,15.65,14.45,13.51,15.63-2.14,14.38-19.19,7.71-21.82"/>
          <path class="cls-13" d="M294.93,233.09c-1.32,3.43-3.7,6.65-7.25,7.82,2.43-2.03,3.41-5.44,3.3-8.46,0,0,3.95.64,3.95.64h0Z"/>
          <path class="cls-1" d="M299.99,246.52c-5.05,1.24-3.4,11.71,10.33,11.82,13.73.11,17.56-16.48,10.12-18.74"/>
          <path class="cls-13" d="M281.21,250.17c3.77,3.92,7.13,6.39,12.38,4.74,1.4-.42,2.65-1.09,3.62-1.92l4.08,2.89c-2.74,4.49-8.2,6.06-13.06,4.98-4.7-.9-9.17-5.87-7.01-10.69h0Z"/>
        </g>
      </g>
      <g>
        <g>
          <path class="cls-10" d="M53.01,250.49c-1.26-2.4-3.92-3.74-6.59-3.28-40.66,7.12-49.65,34.11-40.4,41.19,9.58,7.33,40.46,30.91,47.96,30.32,7.49-.59,16.67-18.48,5.84-26.75-10.83-8.27-29.03-15.33-29.03-15.33,0,0,7.97-11.22,19.76-17.75,2.97-1.65,4.05-5.39,2.46-8.4h0Z"/>
          <path class="cls-6" d="M30.5,295.93c-.45.68-1.37.87-2.05.43-4.14-2.69-17.32-11.35-18.57-13.49-1.47-2.52-3.4-14.08,29.65-29.2.73-.33,1.6-.03,1.96.68h0c.38.75.08,1.65-.68,2.02-3.9,1.89-15.19,7.71-21.87,14.92-6.82,7.36,9.43,14.11,15.01,16.15.91.33,1.26,1.42.73,2.23l-4.17,6.26Z"/>
          <path class="cls-13" d="M46.42,247.21c-3.67,2.04-7.32,3.44-10.94,4.83-1.81.69-3.62,1.34-5.4,2.08-.88.39-1.77.76-2.63,1.17-.86.43-1.73.83-2.57,1.28-3.38,1.79-6.56,3.9-9.41,6.36-.73.59-1.37,1.27-2.07,1.9-.63.69-1.31,1.33-1.89,2.05-1.23,1.39-2.29,2.9-3.22,4.45-1.86,3.09-3.01,6.61-2.89,9.81.08,1.59.55,3.02,1.3,4.08.23.22.39.52.66.7l.37.33.59.45,2.38,1.79c6.33,4.76,12.74,9.41,19.22,13.91,3.24,2.25,6.51,4.44,9.82,6.52,3.31,2.06,6.68,4.08,10.04,5.59.84.38,1.66.69,2.44.95.36.09.76.22,1.03.25l.22.04c.06,0,.09,0,.13,0,.07,0,.15.03.27,0,.87-.1,2.24-.92,3.33-2.09,2.24-2.34,3.87-5.68,4.44-8.97.55-3.3.03-6.59-1.96-8.91-.48-.6-1.04-1.11-1.69-1.63-.77-.56-1.5-1.14-2.3-1.67-1.57-1.08-3.19-2.13-4.85-3.11-3.32-1.98-6.78-3.81-10.3-5.53-3.5-1.73-7.1-3.39-10.67-4.87h0s-2.9-1.2-2.9-1.2l1.77-2.58c1.38-2.01,2.87-3.69,4.48-5.37,1.62-1.64,3.34-3.17,5.15-4.59,1.81-1.42,3.7-2.74,5.74-3.83,2.01-1.11,4.18-1.98,6.43-2.52-1.61,1.7-3.25,3.16-4.79,4.75-1.55,1.56-3.11,3.06-4.58,4.67-1.48,1.59-2.92,3.2-4.31,4.85-1.39,1.62-2.78,3.35-4.05,4.93l-1.13-3.78h0c7.58,2.91,14.87,6.23,21.95,10.29,1.77,1.01,3.51,2.1,5.23,3.24.86.57,1.7,1.2,2.55,1.8.44.34.93.74,1.37,1.14.42.44.88.83,1.26,1.32.82.91,1.46,1.98,2.03,3.07.51,1.11.96,2.27,1.2,3.45.54,2.36.5,4.76.14,7.02-.39,2.27-1.09,4.43-2.09,6.46-.99,2.03-2.25,3.94-3.89,5.65-.82.85-1.74,1.66-2.84,2.35-1.09.68-2.38,1.28-3.92,1.51-.37.07-.79.08-1.21.07-.2,0-.43,0-.61-.03l-.51-.08c-.72-.1-1.27-.27-1.87-.43-1.12-.35-2.15-.76-3.12-1.21-3.88-1.78-7.32-3.89-10.76-6.04-3.41-2.17-6.73-4.42-10.01-6.71-6.56-4.59-12.93-9.41-19.25-14.27l-2.36-1.83-.59-.46c-.23-.19-.5-.43-.75-.65-.53-.43-.91-.99-1.35-1.5-1.55-2.19-2.2-4.74-2.29-7.11-.07-2.38.35-4.66,1.05-6.78.69-2.13,1.66-4.1,2.81-5.93,1.15-1.83,2.42-3.56,3.86-5.12.69-.81,1.47-1.52,2.2-2.28.79-.69,1.54-1.44,2.36-2.08,3.23-2.67,6.77-4.89,10.45-6.74.92-.47,1.86-.88,2.79-1.32.94-.42,1.9-.79,2.84-1.19,1.91-.73,3.84-1.44,5.82-1.93,3.96-.99,8.07-1.41,12.22-.78Z"/>
        </g>
        <g>
          <path class="cls-15" d="M36.45,300.23c-5.3,13.42-.09,18.83,7.64,17.69,0,0,2.39,13.49,16.89,19.7,0,0,11.29,14.2,19.57,3.07,0,0,12.95,5.84,18.56-10.56,0,0,10.67-6.83,2.11-16.27-8.56-9.44-15.36.84-15.36.84l-2.21-8.14s12.05.46,13.63-7.67c1.58-8.13-6.43-8.59-10.18-7.34-3.74,1.25-10.34-3.57-15.85-1.11,0,0-5.27-1.17-10.35.67,0,0-8.34-16.46-24.47,9.12Z"/>
          <path class="cls-8" d="M35.86,301.85c-4.17,11.98.63,16.95,7.79,16.13,0-6.98,1.54-12.27,1.54-12.27,0,0-9.17,9-9.33-3.86Z"/>
          <path class="cls-8" d="M86.11,306.46l-6.2-1c3.28,5.4-2.47,7.4-2.47,7.4,7.15,8.11-2.8,11.33-2.8,11.33,1.06,8.26-6.76,8.17-6.76,8.17-2.4,6.33-16.44,3.38-22.44-11.5,0,0-.14.1-.39.28,1.65,4.38,5.88,12.18,15.93,16.49,0,0,11.29,14.2,19.57,3.07,0,0,12.95,5.84,18.56-10.56,0,0,10.67-6.83,2.11-16.27-8.56-9.44-15.36.84-15.36.84l-2.21-8.14s.99.04,2.45-.1Z"/>
          <g>
            <path class="cls-13" d="M79.66,313.57c.95-.48,2.1-.7,3.28-.68,1.19.02,2.43.32,3.6.83h0s-1.61-.41-1.61-.41c.43-.03.68,0,.99.03.3.02.58.06.86.11.56.09,1.1.21,1.62.36,1.05.3,2.05.69,3,1.15.93.49,1.83,1.01,2.65,1.63.83.6,1.58,1.28,2.29,1.97-.91-.42-1.81-.8-2.74-1.08-.92-.3-1.87-.48-2.79-.61-.93-.11-1.86-.14-2.75-.08-.45.02-.89.09-1.31.16-.21.04-.42.08-.61.14-.18.05-.43.12-.48.17l-1.61-.41h0c-.4-.75-.95-1.45-1.69-2.04-.73-.57-1.64-1.05-2.69-1.23Z"/>
            <path class="cls-13" d="M84.79,316.23c-.14-.36-.26-.75-.34-1.13-.07-.38-.04-.74-.03-1.11,0-.39.11-.66.2-.98.09-.32.2-.61.34-.84.52-1.06,1.21-1.71,1.93-2.33,1.46-1.12,3.11-1.71,4.77-1.96,3.35-.42,6.56.65,9.07,2.27,2.55,1.64,4.82,4.2,5.8,7.35.5,1.57.63,3.24.51,4.88-.21,1.63-.65,3.22-1.42,4.64-1.52,2.85-4,4.9-6.61,6.24l-.49.26c-.18.08-.37.15-.56.22l-1.13.41c-.75.28-1.55.33-2.32.47-.77.08-1.53.04-2.29.05-.73-.09-1.48-.16-2.19-.29-2.85-.57-5.39-1.68-7.72-3.02-2.29-1.4-4.29-3.3-5.33-6.06,2.89.42,5.13,1.31,7.32,2.25,2.14.99,4.36,1.78,6.5,2.04.53.05,1.05.06,1.58.1.5-.06,1.01-.06,1.49-.14l.69-.17c.23-.05.47-.08.67-.2l.64-.27c.11-.04.21-.08.32-.13l.34-.2c1.82-1.04,3.32-2.47,4.1-4.14.42-.83.63-1.7.74-2.58.03-.88-.04-1.76-.33-2.6-.59-1.66-1.77-3.19-3.44-4.29-1.71-1.1-3.56-1.75-5.27-1.59-.84.07-1.66.33-2.24.71-.24.19-.52.4-.56.49-.04.03-.04.04-.03.02,0-.02-.05,0-.02-.06.02-.06-.03-.09-.03-.17,0-.08-.03-.16-.09-.22l-4.55,2.07Z"/>
            <path class="cls-13" d="M100.59,331.02c-.02,3.45-1.65,7.12-4.41,9.5-2.71,2.45-6.23,3.63-9.61,3.81-3.4.19-6.74-.61-9.64-2.09-2.87-1.54-5.19-4.06-6.08-7.18,3.03,1.13,5.45,2.15,7.92,2.87,2.42.78,4.94,1.04,7.32.74,2.37-.29,4.57-1.18,6.22-2.57,1.65-1.4,2.77-3.27,3.3-5.59l4.97.53Z"/>
            <path class="cls-1" d="M80.88,341.08c-4.64,7.2-14.94,3.44-19.89-3.45,0,0-16.6-8.11-17.27-22.75-.67-14.63,15.4-27.3,27.82-24.28"/>
            <path class="cls-1" d="M84.27,314.56c1.34-3.51.75-5.96-1.42-8.08"/>
            <path class="cls-13" d="M74.38,301.49c3,.73,5.32,1.54,7.64,2.1,2.26.63,4.56.93,6.53.36,1.98-.49,3.52-1.71,4.66-3.46,1.22-1.87,1.73-3.78,1.26-4.96-.22-.6-.6-1.13-1.21-1.52-.6-.39-1.39-.61-2.21-.63-.84-.02-1.7.21-2.54.63-1.1.6-2.33.79-3.33.77-1.01-.03-1.87-.21-2.65-.42-1.56-.43-2.83-.99-4.04-1.46-1.2-.48-2.33-.87-3.3-1.01-.48-.07-.89-.06-1.24-.01-.35.05-.69.07-1.11.21-.85.25-1.94.93-3.48,1.78-.55-1.65-.27-3.4.98-4.88.62-.73,1.54-1.3,2.49-1.57.96-.28,1.91-.33,2.78-.28,1.73.11,3.2.54,4.55.94,1.34.4,2.59.83,3.66,1.05.53.11,1.01.16,1.35.13.35-.02.49-.1.57-.17,1.52-.88,3.3-1.49,5.18-1.55,1.87-.09,3.81.36,5.51,1.39,1.7,1.01,3.14,2.69,3.78,4.65.68,1.96.59,4.02.1,5.76-.24.88-.59,1.7-.97,2.43-.37.71-.78,1.42-1.27,2.09-.95,1.35-2.17,2.6-3.62,3.55-1.45.95-3.09,1.62-4.75,1.92-1.66.31-3.33.29-4.9.05-1.58-.23-3.09-.66-4.47-1.34-1.38-.67-2.61-1.58-3.64-2.67-1.02-1.1-1.86-2.37-2.31-3.87Z"/>
            <path class="cls-1" d="M43.82,318.36c-2.21.57-4.28.4-5.95-.65-4.91-3.08-4.5-12.58.92-21.22,5.42-8.64,13.79-13.15,18.7-10.07,1.66,1.04,2.71,2.81,3.16,5.03"/>
          </g>
        </g>
      </g>
    </g>
  </g>
</svg>